<svg width="23" height="25" viewBox="0 0 23 25" fill="none" xmlns="http://www.w3.org/2000/svg">
<path d="M22.4023 11.5669C22.4023 5.62294 17.5836 0.804199 11.6396 0.804199C5.69569 0.804199 0.876953 5.62294 0.876953 11.5669C0.876953 16.5484 4.26242 20.739 8.8583 21.9658L10.9405 24.6226C11.2966 25.076 11.9827 25.076 12.3388 24.6226L14.421 21.9658C19.0169 20.7401 22.4023 16.5495 22.4023 11.5669Z" fill="#2E2E2E"/>
<path d="M11.6392 3.42772C11.6392 3.04075 11.9534 2.72414 12.3392 2.75506C13.9867 2.88712 15.5685 3.48337 16.8979 4.48148C18.4146 5.62025 19.5207 7.22059 20.0498 9.0419C20.5789 10.8632 20.5026 12.8071 19.8322 14.5813C19.1618 16.3554 17.9335 17.8641 16.3322 18.8803C14.7308 19.8966 12.8428 20.3656 10.952 20.2168C9.06126 20.068 7.26988 19.3094 5.84721 18.0551C4.42453 16.8009 3.44744 15.1187 3.06283 13.2615C2.72573 11.6337 2.85975 9.9485 3.44174 8.40152C3.578 8.03934 3.99826 7.88984 4.3484 8.05461V8.05461C4.69854 8.21937 4.84538 8.63596 4.71466 9.00018C4.25868 10.2706 4.15951 11.6468 4.43505 12.9773C4.75813 14.5374 5.57888 15.9504 6.77393 17.004C7.96898 18.0576 9.47374 18.6947 11.062 18.8197C12.6502 18.9447 14.2361 18.5508 15.5813 17.6971C16.9264 16.8435 17.9581 15.5762 18.5213 14.0859C19.0844 12.5956 19.1486 10.9628 18.7041 9.43286C18.2596 7.90296 17.3305 6.55868 16.0565 5.60211C14.9699 4.78628 13.6825 4.29007 12.3389 4.16172C11.9536 4.12493 11.6392 3.81469 11.6392 3.42772V3.42772Z" fill="#FAE100"/>
<path d="M6.87351 11.3217C6.49982 11.1274 6.31298 10.8265 6.31298 10.4192C6.31298 10.2174 6.36343 10.0343 6.46432 9.8699C6.56896 9.70174 6.72404 9.56908 6.92957 9.47192C7.13883 9.37103 7.39294 9.32058 7.69189 9.32058C7.99085 9.32058 8.24309 9.37103 8.44862 9.47192C8.65788 9.56908 8.81296 9.70174 8.91386 9.8699C9.01849 10.0343 9.07081 10.2174 9.07081 10.4192C9.07081 10.6248 9.02036 10.806 8.91946 10.9629C8.81857 11.1162 8.68404 11.2357 8.51588 11.3217C8.72141 11.4114 8.8821 11.5422 8.99794 11.7141C9.11378 11.886 9.17171 12.0896 9.17171 12.325C9.17171 12.5792 9.10631 12.8015 8.97552 12.9921C8.84846 13.1789 8.67283 13.3228 8.44862 13.4237C8.2244 13.5246 7.97216 13.575 7.69189 13.575C7.41163 13.575 7.15939 13.5246 6.93517 13.4237C6.7147 13.3228 6.53906 13.1789 6.40827 12.9921C6.28122 12.8015 6.21769 12.5792 6.21769 12.325C6.21769 12.0896 6.27561 11.886 6.39145 11.7141C6.5073 11.5384 6.66798 11.4076 6.87351 11.3217ZM8.30848 10.5313C8.30848 10.3482 8.25243 10.2062 8.14032 10.1053C8.03195 10.0044 7.88248 9.95398 7.69189 9.95398C7.50505 9.95398 7.35557 10.0044 7.24347 10.1053C7.1351 10.2062 7.08091 10.3501 7.08091 10.5369C7.08091 10.7051 7.13696 10.8396 7.24907 10.9405C7.36492 11.0414 7.51252 11.0919 7.69189 11.0919C7.87127 11.0919 8.01887 11.0414 8.13472 10.9405C8.25056 10.8359 8.30848 10.6995 8.30848 10.5313ZM7.69189 11.6636C7.47889 11.6636 7.30513 11.7178 7.1706 11.8262C7.03981 11.9345 6.97441 12.0896 6.97441 12.2914C6.97441 12.4783 7.03794 12.6315 7.16499 12.7511C7.29578 12.8669 7.47142 12.9248 7.69189 12.9248C7.91237 12.9248 8.08614 12.865 8.21319 12.7454C8.34025 12.6259 8.40377 12.4745 8.40377 12.2914C8.40377 12.0934 8.33838 11.9401 8.20759 11.8318C8.07679 11.7197 7.9049 11.6636 7.69189 11.6636ZM10.0382 12.5997C10.3969 12.3008 10.6828 12.0523 10.8958 11.8542C11.1088 11.6524 11.2863 11.4431 11.4283 11.2264C11.5703 11.0097 11.6413 10.7967 11.6413 10.5874C11.6413 10.3968 11.5965 10.2473 11.5068 10.139C11.4171 10.0306 11.2788 9.9764 11.092 9.9764C10.9051 9.9764 10.7613 10.0399 10.6604 10.167C10.5595 10.2903 10.5071 10.4603 10.5034 10.6771H9.74109C9.75603 10.2286 9.88869 9.88859 10.1391 9.6569C10.3932 9.42521 10.7145 9.30937 11.1032 9.30937C11.5292 9.30937 11.8562 9.42334 12.0841 9.6513C12.3121 9.87551 12.426 10.1726 12.426 10.5425C12.426 10.834 12.3476 11.1124 12.1906 11.3777C12.0337 11.6431 11.8543 11.8747 11.6525 12.0728C11.4507 12.2671 11.1873 12.5025 10.8622 12.7791H12.5157V13.4293H9.74669V12.8463L10.0382 12.5997ZM12.9205 10.4024C12.9205 10.1184 13.0028 9.89606 13.1672 9.73538C13.3353 9.57469 13.5502 9.49435 13.8118 9.49435C14.0734 9.49435 14.2864 9.57469 14.4508 9.73538C14.619 9.89606 14.703 10.1184 14.703 10.4024C14.703 10.6902 14.619 10.9144 14.4508 11.0751C14.2864 11.2357 14.0734 11.3161 13.8118 11.3161C13.5502 11.3161 13.3353 11.2357 13.1672 11.0751C13.0028 10.9144 12.9205 10.6902 12.9205 10.4024ZM16.5192 9.56161L14.3163 13.4854H13.5539L15.7512 9.56161H16.5192ZM13.8062 9.96519C13.6007 9.96519 13.4979 10.1109 13.4979 10.4024C13.4979 10.6976 13.6007 10.8452 13.8062 10.8452C13.9071 10.8452 13.9856 10.8097 14.0416 10.7387C14.0977 10.664 14.1257 10.5519 14.1257 10.4024C14.1257 10.1109 14.0192 9.96519 13.8062 9.96519ZM15.3813 12.6389C15.3813 12.3512 15.4635 12.1289 15.6279 11.9719C15.7961 11.8112 16.011 11.7309 16.2725 11.7309C16.5341 11.7309 16.7453 11.8112 16.9059 11.9719C17.0704 12.1289 17.1526 12.3512 17.1526 12.6389C17.1526 12.9267 17.0704 13.1509 16.9059 13.3116C16.7453 13.4723 16.5341 13.5526 16.2725 13.5526C16.0072 13.5526 15.7923 13.4723 15.6279 13.3116C15.4635 13.1509 15.3813 12.9267 15.3813 12.6389ZM16.2669 12.2017C16.0539 12.2017 15.9474 12.3475 15.9474 12.6389C15.9474 12.9342 16.0539 13.0818 16.2669 13.0818C16.4762 13.0818 16.5808 12.9342 16.5808 12.6389C16.5808 12.3475 16.4762 12.2017 16.2669 12.2017Z" fill="white"/>
</svg>
