<svg width="31" height="35" viewBox="0 0 31 35" fill="none" xmlns="http://www.w3.org/2000/svg">
<path d="M30.7212 15.3606C30.7212 6.87735 23.8439 0 15.3606 0C6.87735 0 0 6.87735 0 15.3606C0 22.4703 4.83177 28.4511 11.3911 30.202L14.3628 33.9939C14.871 34.6409 15.8502 34.6409 16.3585 33.9939L19.3302 30.202C25.8895 28.4527 30.7212 22.4718 30.7212 15.3606Z" fill="#2E2E2E"/>
<path d="M15.3613 3.7439C15.3613 3.19161 15.8098 2.73974 16.3603 2.78386C18.9769 2.99359 21.4706 4.0231 23.4794 5.73882C25.7426 7.67177 27.2418 10.3488 27.7074 13.2885C28.173 16.2281 27.5744 19.2374 26.0193 21.7751C24.4642 24.3128 22.0547 26.2124 19.224 27.1321C16.3934 28.0518 13.3275 27.9314 10.5778 26.7924C7.82805 25.6534 5.57495 23.5707 4.22374 20.9188C2.87254 18.2669 2.5119 15.2199 3.20671 12.3258C3.82342 9.75701 5.23576 7.45834 7.2293 5.75072C7.64874 5.39143 8.27718 5.49339 8.6018 5.9402V5.9402C8.92643 6.38701 8.82363 7.00899 8.40971 7.37463C6.79882 8.79762 5.65695 10.6871 5.15144 12.7927C4.56781 15.2237 4.87074 17.7832 6.00576 20.0108C7.14077 22.2384 9.03337 23.9879 11.3431 24.9446C13.6529 25.9014 16.2283 26.0026 18.606 25.23C20.9837 24.4574 23.0078 22.8618 24.314 20.7301C25.6203 18.5985 26.1232 16.0706 25.7321 13.6013C25.341 11.132 24.0816 8.88331 22.1805 7.25963C20.5339 5.85331 18.4995 4.99583 16.3599 4.79147C15.8101 4.73895 15.3613 4.29618 15.3613 3.7439V3.7439Z" fill="#A8FA00"/>
<path d="M8.8782 16.6039C8.92087 16.8386 9.01687 17.0199 9.1662 17.1479C9.32087 17.2706 9.5262 17.3319 9.7822 17.3319C10.1129 17.3319 10.3529 17.1959 10.5022 16.9239C10.6515 16.6466 10.7262 16.1826 10.7262 15.5319C10.6035 15.7026 10.4302 15.8359 10.2062 15.9319C9.98754 16.0279 9.7502 16.0759 9.4942 16.0759C9.15287 16.0759 8.84354 16.0066 8.5662 15.8679C8.2942 15.7239 8.0782 15.5132 7.9182 15.2359C7.7582 14.9532 7.6782 14.6119 7.6782 14.2119C7.6782 13.6199 7.8542 13.1506 8.2062 12.8039C8.5582 12.4519 9.0382 12.2759 9.6462 12.2759C10.4035 12.2759 10.9369 12.5186 11.2462 13.0039C11.5609 13.4892 11.7182 14.2199 11.7182 15.1959C11.7182 15.8892 11.6569 16.4572 11.5342 16.8999C11.4169 17.3426 11.2115 17.6786 10.9182 17.9079C10.6302 18.1372 10.2355 18.2519 9.7342 18.2519C9.33954 18.2519 9.00354 18.1772 8.7262 18.0279C8.44887 17.8732 8.23554 17.6732 8.0862 17.4279C7.9422 17.1772 7.85954 16.9026 7.8382 16.6039H8.8782ZM9.7262 15.1639C10.0035 15.1639 10.2222 15.0786 10.3822 14.9079C10.5422 14.7372 10.6222 14.5079 10.6222 14.2199C10.6222 13.9052 10.5369 13.6626 10.3662 13.4919C10.2009 13.3159 9.9742 13.2279 9.6862 13.2279C9.3982 13.2279 9.16887 13.3186 8.9982 13.4999C8.83287 13.6759 8.7502 13.9106 8.7502 14.2039C8.7502 14.4866 8.8302 14.7186 8.9902 14.8999C9.15554 15.0759 9.40087 15.1639 9.7262 15.1639ZM12.59 15.2519C12.59 14.3292 12.7553 13.6066 13.086 13.0839C13.422 12.5612 13.9767 12.2999 14.75 12.2999C15.5233 12.2999 16.0753 12.5612 16.406 13.0839C16.742 13.6066 16.91 14.3292 16.91 15.2519C16.91 16.1799 16.742 16.9079 16.406 17.4359C16.0753 17.9639 15.5233 18.2279 14.75 18.2279C13.9767 18.2279 13.422 17.9639 13.086 17.4359C12.7553 16.9079 12.59 16.1799 12.59 15.2519ZM15.806 15.2519C15.806 14.8572 15.7793 14.5266 15.726 14.2599C15.678 13.9879 15.5767 13.7666 15.422 13.5959C15.2727 13.4252 15.0487 13.3399 14.75 13.3399C14.4513 13.3399 14.2247 13.4252 14.07 13.5959C13.9207 13.7666 13.8193 13.9879 13.766 14.2599C13.718 14.5266 13.694 14.8572 13.694 15.2519C13.694 15.6572 13.718 15.9986 13.766 16.2759C13.814 16.5479 13.9153 16.7692 14.07 16.9399C14.2247 17.1052 14.4513 17.1879 14.75 17.1879C15.0487 17.1879 15.2753 17.1052 15.43 16.9399C15.5847 16.7692 15.686 16.5479 15.734 16.2759C15.782 15.9986 15.806 15.6572 15.806 15.2519ZM17.6339 13.8439C17.6339 13.4386 17.7512 13.1212 17.9859 12.8919C18.2259 12.6626 18.5326 12.5479 18.9059 12.5479C19.2792 12.5479 19.5832 12.6626 19.8179 12.8919C20.0579 13.1212 20.1779 13.4386 20.1779 13.8439C20.1779 14.2546 20.0579 14.5746 19.8179 14.8039C19.5832 15.0332 19.2792 15.1479 18.9059 15.1479C18.5326 15.1479 18.2259 15.0332 17.9859 14.8039C17.7512 14.5746 17.6339 14.2546 17.6339 13.8439ZM22.7699 12.6439L19.6259 18.2439H18.5379L21.6739 12.6439H22.7699ZM18.8979 13.2199C18.6046 13.2199 18.4579 13.4279 18.4579 13.8439C18.4579 14.2652 18.6046 14.4759 18.8979 14.4759C19.0419 14.4759 19.1539 14.4252 19.2339 14.3239C19.3139 14.2172 19.3539 14.0572 19.3539 13.8439C19.3539 13.4279 19.2019 13.2199 18.8979 13.2199ZM21.1459 17.0359C21.1459 16.6252 21.2632 16.3079 21.4979 16.0839C21.7379 15.8546 22.0446 15.7399 22.4179 15.7399C22.7912 15.7399 23.0926 15.8546 23.3219 16.0839C23.5566 16.3079 23.6739 16.6252 23.6739 17.0359C23.6739 17.4466 23.5566 17.7666 23.3219 17.9959C23.0926 18.2252 22.7912 18.3399 22.4179 18.3399C22.0392 18.3399 21.7326 18.2252 21.4979 17.9959C21.2632 17.7666 21.1459 17.4466 21.1459 17.0359ZM22.4099 16.4119C22.1059 16.4119 21.9539 16.6199 21.9539 17.0359C21.9539 17.4572 22.1059 17.6679 22.4099 17.6679C22.7086 17.6679 22.8579 17.4572 22.8579 17.0359C22.8579 16.6199 22.7086 16.4119 22.4099 16.4119Z" fill="white"/>
</svg>
