<svg width="18" height="20" viewBox="0 0 18 20" fill="none" xmlns="http://www.w3.org/2000/svg">
<path d="M17.3506 8.95043C17.3506 4.32973 13.6046 0.58374 8.98388 0.58374C4.36318 0.58374 0.617188 4.32973 0.617188 8.95043C0.617188 12.823 3.24898 16.0806 6.82172 17.0343L8.44037 19.0997C8.71722 19.4521 9.25054 19.4521 9.52739 19.0997L11.146 17.0343C14.7188 16.0815 17.3506 12.8238 17.3506 8.95043Z" fill="#2E2E2E"/>
<path d="M8.98434 2.62305C8.98434 2.32223 9.22863 2.0761 9.52849 2.10014C10.9537 2.21437 12.312 2.77513 13.4061 3.70966C14.6389 4.76251 15.4555 6.22066 15.7091 7.82184C15.9627 9.42302 15.6366 11.0621 14.7896 12.4444C13.9425 13.8266 12.6301 14.8613 11.0883 15.3623C9.54651 15.8632 7.87655 15.7976 6.37882 15.1772C4.88108 14.5568 3.65385 13.4224 2.91787 11.9779C2.18189 10.5335 1.98545 8.87385 2.3639 7.2975C2.69982 5.89831 3.4691 4.64625 4.55495 3.71614C4.78341 3.52044 5.12571 3.57598 5.30253 3.81935C5.47935 4.06272 5.42335 4.4015 5.1979 4.60066C4.32048 5.37574 3.69852 6.40493 3.42317 7.55181C3.10528 8.87594 3.27028 10.2701 3.8885 11.4834C4.50673 12.6967 5.5376 13.6496 6.7957 14.1708C8.0538 14.6919 9.45656 14.747 10.7517 14.3262C12.0468 13.9054 13.1492 13.0363 13.8608 11.8752C14.5723 10.7141 14.8461 9.33724 14.6331 7.99225C14.4201 6.64726 13.7341 5.42241 12.6987 4.53802C11.8018 3.77202 10.6937 3.30496 9.52823 3.19365C9.22878 3.16505 8.98434 2.92388 8.98434 2.62305Z" fill="#A8FA00"/>
<path d="M5.45248 9.88418C5.47572 10.012 5.52801 10.1108 5.60935 10.1805C5.6936 10.2473 5.80544 10.2807 5.94488 10.2807C6.12499 10.2807 6.25571 10.2066 6.33705 10.0585C6.41839 9.90742 6.45906 9.65469 6.45906 9.30028C6.39225 9.39324 6.29783 9.46586 6.17582 9.51815C6.05672 9.57044 5.92745 9.59659 5.78801 9.59659C5.60209 9.59659 5.4336 9.55882 5.28254 9.48329C5.13439 9.40486 5.01674 9.29011 4.92959 9.13905C4.84244 8.98509 4.79886 8.79917 4.79886 8.5813C4.79886 8.25884 4.89473 8.0032 5.08645 7.81438C5.27818 7.62265 5.53963 7.52679 5.8708 7.52679C6.28331 7.52679 6.57381 7.65896 6.7423 7.92332C6.91369 8.18767 6.99939 8.58565 6.99939 9.11727C6.99939 9.49491 6.96598 9.8043 6.89917 10.0454C6.83526 10.2865 6.72341 10.4695 6.56364 10.5945C6.40677 10.7194 6.1918 10.7818 5.91873 10.7818C5.70376 10.7818 5.52075 10.7412 5.36969 10.6598C5.21863 10.5756 5.10243 10.4666 5.02109 10.333C4.94266 10.1965 4.89763 10.0469 4.88601 9.88418H5.45248ZM5.91438 9.09984C6.06543 9.09984 6.18454 9.05336 6.27169 8.9604C6.35884 8.86744 6.40241 8.74252 6.40241 8.58565C6.40241 8.41426 6.35593 8.28208 6.26297 8.18912C6.17292 8.09326 6.04946 8.04533 5.89259 8.04533C5.73572 8.04533 5.6108 8.09471 5.51785 8.19348C5.42779 8.28935 5.38276 8.41717 5.38276 8.57694C5.38276 8.7309 5.42634 8.85727 5.51349 8.95604C5.60354 9.0519 5.73717 9.09984 5.91438 9.09984Z" fill="white"/>
<path d="M7.47425 9.14777C7.47425 8.64521 7.56431 8.25158 7.74441 7.96689C7.92743 7.6822 8.22955 7.53986 8.65077 7.53986C9.07199 7.53986 9.37266 7.6822 9.55277 7.96689C9.73578 8.25158 9.82729 8.64521 9.82729 9.14777C9.82729 9.65324 9.73578 10.0498 9.55277 10.3374C9.37266 10.625 9.07199 10.7688 8.65077 10.7688C8.22955 10.7688 7.92743 10.625 7.74441 10.3374C7.56431 10.0498 7.47425 9.65324 7.47425 9.14777ZM9.22596 9.14777C9.22596 8.9328 9.21143 8.75269 9.18238 8.60744C9.15624 8.45929 9.10104 8.33873 9.0168 8.24577C8.93546 8.15281 8.81345 8.10633 8.65077 8.10633C8.48809 8.10633 8.36463 8.15281 8.28038 8.24577C8.19904 8.33873 8.14385 8.45929 8.1148 8.60744C8.08866 8.75269 8.07558 8.9328 8.07558 9.14777C8.07558 9.36855 8.08866 9.55447 8.1148 9.70553C8.14094 9.85368 8.19614 9.97424 8.28038 10.0672C8.36463 10.1573 8.48809 10.2023 8.65077 10.2023C8.81345 10.2023 8.93691 10.1573 9.02116 10.0672C9.1054 9.97424 9.1606 9.85368 9.18674 9.70553C9.21288 9.55447 9.22596 9.36855 9.22596 9.14777Z" fill="white"/>
<path d="M10.2216 8.38085C10.2216 8.16007 10.2855 7.98723 10.4133 7.86231C10.544 7.7374 10.7111 7.67494 10.9144 7.67494C11.1178 7.67494 11.2833 7.7374 11.4112 7.86231C11.5419 7.98723 11.6073 8.16007 11.6073 8.38085C11.6073 8.60454 11.5419 8.77884 11.4112 8.90375C11.2833 9.02866 11.1178 9.09112 10.9144 9.09112C10.7111 9.09112 10.544 9.02866 10.4133 8.90375C10.2855 8.77884 10.2216 8.60454 10.2216 8.38085ZM13.0191 7.72723L11.3066 10.7775H10.714L12.4221 7.72723H13.0191ZM10.9101 8.04097C10.7503 8.04097 10.6704 8.15426 10.6704 8.38085C10.6704 8.61035 10.7503 8.72509 10.9101 8.72509C10.9885 8.72509 11.0495 8.6975 11.0931 8.6423C11.1366 8.5842 11.1584 8.49705 11.1584 8.38085C11.1584 8.15426 11.0756 8.04097 10.9101 8.04097ZM12.1345 10.1195C12.1345 9.8958 12.1984 9.72296 12.3262 9.60095C12.457 9.47603 12.624 9.41358 12.8273 9.41358C13.0307 9.41358 13.1948 9.47603 13.3197 9.60095C13.4476 9.72296 13.5115 9.8958 13.5115 10.1195C13.5115 10.3432 13.4476 10.5175 13.3197 10.6424C13.1948 10.7673 13.0307 10.8298 12.8273 10.8298C12.6211 10.8298 12.4541 10.7673 12.3262 10.6424C12.1984 10.5175 12.1345 10.3432 12.1345 10.1195ZM12.823 9.7796C12.6574 9.7796 12.5746 9.8929 12.5746 10.1195C12.5746 10.349 12.6574 10.4637 12.823 10.4637C12.9857 10.4637 13.067 10.349 13.067 10.1195C13.067 9.8929 12.9857 9.7796 12.823 9.7796Z" fill="white"/>
</svg>
