<svg width="28" height="31" viewBox="0 0 28 31" fill="none" xmlns="http://www.w3.org/2000/svg">
<path d="M27.1348 13.9543C27.1348 6.60058 21.1731 0.638916 13.8193 0.638916C6.46557 0.638916 0.503906 6.60058 0.503906 13.9543C0.503906 20.1174 4.69235 25.3019 10.3783 26.8197L12.9543 30.1067C13.395 30.6676 14.2437 30.6676 14.6843 30.1067L17.2604 26.8197C22.9463 25.3033 27.1348 20.1187 27.1348 13.9543Z" fill="#2E2E2E"/>
<path d="M13.8181 3.88443C13.8181 3.40568 14.2069 3.01397 14.6841 3.05222C17.1542 3.25018 19.4919 4.29044 21.2975 6.01289C23.3129 7.93554 24.5106 10.5605 24.6418 13.3428C24.773 16.1252 23.8277 18.8512 22.0021 20.955C20.1765 23.0588 17.6109 24.3787 14.8378 24.6409C12.0648 24.903 9.29725 24.0872 7.1098 22.3627C4.92235 20.6383 3.48299 18.1377 3.09052 15.38C2.69805 12.6224 3.38262 9.8195 5.00211 7.55325C6.45297 5.52297 8.55434 4.0631 10.9435 3.4058C11.4051 3.27881 11.8604 3.59074 11.9501 4.06101V4.06101C12.0399 4.53128 11.7297 4.98119 11.2701 5.1152C9.31838 5.68425 7.60431 6.89371 6.41267 8.56125C5.0523 10.4649 4.47726 12.8193 4.80694 15.1357C5.13661 17.4522 6.34567 19.5527 8.18313 21.0012C10.0206 22.4497 12.3453 23.135 14.6747 22.9149C17.0041 22.6947 19.1592 21.5859 20.6927 19.8187C22.2262 18.0515 23.0202 15.7617 22.91 13.4245C22.7998 11.0873 21.7938 8.88238 20.1008 7.26735C18.6178 5.85264 16.7074 4.98579 14.6837 4.79252C14.2071 4.747 13.8181 4.36318 13.8181 3.88443V3.88443Z" fill="#A8FA00"/>
<path d="M8.30935 14.9343C8.34634 15.1377 8.42955 15.2949 8.559 15.4059C8.69308 15.5122 8.87107 15.5654 9.09299 15.5654C9.37963 15.5654 9.58767 15.4475 9.71712 15.2117C9.84657 14.9713 9.9113 14.5691 9.9113 14.005C9.80496 14.153 9.65471 14.2686 9.46053 14.3518C9.27098 14.435 9.06525 14.4766 8.84333 14.4766C8.54745 14.4766 8.2793 14.4165 8.03889 14.2963C7.80311 14.1715 7.61587 13.9889 7.47717 13.7485C7.33847 13.5034 7.26912 13.2075 7.26912 12.8608C7.26912 12.3476 7.42169 11.9408 7.72682 11.6403C8.03196 11.3351 8.44805 11.1826 8.9751 11.1826C9.63159 11.1826 10.0939 11.3929 10.3621 11.8136C10.6348 12.2343 10.7712 12.8677 10.7712 13.7138C10.7712 14.3148 10.7181 14.8072 10.6117 15.1909C10.51 15.5746 10.332 15.8659 10.0777 16.0647C9.82808 16.2635 9.48596 16.3629 9.05138 16.3629C8.70926 16.3629 8.418 16.2982 8.17759 16.1687C7.93718 16.0346 7.75225 15.8613 7.6228 15.6486C7.49797 15.4313 7.42631 15.1932 7.40782 14.9343H8.30935ZM9.04444 13.686C9.28485 13.686 9.4744 13.6121 9.6131 13.4641C9.7518 13.3162 9.82115 13.1174 9.82115 12.8677C9.82115 12.595 9.74717 12.3846 9.59923 12.2367C9.45591 12.0841 9.25942 12.0078 9.00977 12.0078C8.76012 12.0078 8.56132 12.0864 8.41337 12.2436C8.27005 12.3962 8.19839 12.5996 8.19839 12.8539C8.19839 13.0989 8.26774 13.3 8.40644 13.4572C8.54976 13.6098 8.76243 13.686 9.04444 13.686ZM14.7447 12.0356L12.9001 16.356H11.9153L13.7738 12.1465H11.4021V11.3143H14.7447V12.0356ZM15.2153 12.5418C15.2153 12.1904 15.317 11.9153 15.5204 11.7165C15.7284 11.5177 15.9943 11.4183 16.3179 11.4183C16.6415 11.4183 16.9051 11.5177 17.1085 11.7165C17.3165 11.9153 17.4205 12.1904 17.4205 12.5418C17.4205 12.8978 17.3165 13.1752 17.1085 13.374C16.9051 13.5728 16.6415 13.6722 16.3179 13.6722C15.9943 13.6722 15.7284 13.5728 15.5204 13.374C15.317 13.1752 15.2153 12.8978 15.2153 12.5418ZM19.6674 11.5016L16.942 16.356H15.9989L18.7174 11.5016H19.6674ZM16.311 12.0009C16.0567 12.0009 15.9295 12.1812 15.9295 12.5418C15.9295 12.907 16.0567 13.0896 16.311 13.0896C16.4358 13.0896 16.5329 13.0457 16.6022 12.9579C16.6716 12.8654 16.7063 12.7267 16.7063 12.5418C16.7063 12.1812 16.5745 12.0009 16.311 12.0009ZM18.2597 15.3088C18.2597 14.9528 18.3614 14.6777 18.5648 14.4835C18.7728 14.2848 19.0387 14.1854 19.3623 14.1854C19.6859 14.1854 19.9471 14.2848 20.1459 14.4835C20.3494 14.6777 20.4511 14.9528 20.4511 15.3088C20.4511 15.6648 20.3494 15.9422 20.1459 16.141C19.9471 16.3398 19.6859 16.4392 19.3623 16.4392C19.034 16.4392 18.7682 16.3398 18.5648 16.141C18.3614 15.9422 18.2597 15.6648 18.2597 15.3088ZM19.3554 14.7679C19.0918 14.7679 18.9601 14.9482 18.9601 15.3088C18.9601 15.674 19.0918 15.8566 19.3554 15.8566C19.6143 15.8566 19.7437 15.674 19.7437 15.3088C19.7437 14.9482 19.6143 14.7679 19.3554 14.7679Z" fill="white"/>
</svg>
