<svg width="23" height="26" viewBox="0 0 23 26" fill="none" xmlns="http://www.w3.org/2000/svg">
<path d="M22.0293 11.6904C22.0293 5.74648 17.2106 0.927734 11.2666 0.927734C5.32265 0.927734 0.503906 5.74648 0.503906 11.6904C0.503906 16.6719 3.88937 20.8625 8.48526 22.0893L10.5674 24.7462C10.9236 25.1995 11.6096 25.1995 11.9658 24.7462L14.0479 22.0893C18.6438 20.8636 22.0293 16.673 22.0293 11.6904Z" fill="#2E2E2E"/>
<path d="M11.2662 3.55101C11.2662 3.16404 11.5804 2.84743 11.9661 2.87834C13.916 3.03462 15.7651 3.84035 17.2113 5.17724C18.8297 6.67325 19.8246 8.72441 19.9975 10.9215C20.1704 13.1186 19.5087 15.3002 18.1442 17.0309C16.7798 18.7617 14.813 19.9145 12.6363 20.2592C10.4595 20.604 8.23276 20.1154 6.40028 18.891C4.5678 17.6666 3.2643 15.7963 2.74981 13.6533C2.23531 11.5103 2.54766 9.25207 3.62454 7.32917C4.58688 5.6108 6.09653 4.27309 7.90262 3.52194C8.25992 3.37334 8.65663 3.57735 8.77621 3.94538V3.94538C8.89579 4.31341 8.69263 4.70562 8.33763 4.85965C6.86621 5.49808 5.63717 6.6033 4.8472 8.0139C3.94262 9.62913 3.68025 11.526 4.11242 13.3262C4.5446 15.1263 5.63954 16.6973 7.17882 17.7258C8.71811 18.7543 10.5886 19.1647 12.4171 18.8751C14.2455 18.5855 15.8976 17.6172 17.0438 16.1634C18.1899 14.7095 18.7458 12.877 18.6005 11.0315C18.4553 9.1859 17.6196 7.46292 16.2601 6.20627C15.0729 5.10883 13.5625 4.4375 11.9658 4.285C11.5806 4.24821 11.2662 3.93798 11.2662 3.55101V3.55101Z" fill="#A8FA00"/>
<path d="M6.72468 12.4595C6.75458 12.624 6.82184 12.751 6.92647 12.8407C7.03484 12.9267 7.17871 12.9696 7.35808 12.9696C7.58977 12.9696 7.75793 12.8743 7.86257 12.6838C7.9672 12.4894 8.01952 12.1643 8.01952 11.7084C7.93357 11.828 7.81212 11.9214 7.65517 11.9887C7.50196 12.056 7.33566 12.0896 7.15629 12.0896C6.91713 12.0896 6.70039 12.041 6.50607 11.9439C6.31549 11.843 6.16415 11.6954 6.05204 11.501C5.93993 11.303 5.88388 11.0638 5.88388 10.7835C5.88388 10.3688 6.0072 10.0399 6.25383 9.79701C6.50047 9.55037 6.83679 9.42705 7.26279 9.42705C7.79343 9.42705 8.16712 9.59708 8.38386 9.93714C8.60434 10.2772 8.71458 10.7892 8.71458 11.473C8.71458 11.9588 8.6716 12.3568 8.58566 12.6669C8.50344 12.9771 8.35957 13.2125 8.15404 13.3732C7.95225 13.5339 7.67572 13.6142 7.32445 13.6142C7.04792 13.6142 6.8125 13.5619 6.61818 13.4573C6.42386 13.3489 6.27438 13.2088 6.16975 13.0369C6.06886 12.8613 6.01093 12.6688 5.99599 12.4595H6.72468ZM7.31885 11.4506C7.51317 11.4506 7.66638 11.3908 7.77849 11.2712C7.89059 11.1516 7.94665 10.9909 7.94665 10.7892C7.94665 10.5687 7.88686 10.3986 7.76728 10.2791C7.65143 10.1557 7.49261 10.0941 7.29082 10.0941C7.08903 10.0941 6.92834 10.1576 6.80876 10.2847C6.69292 10.408 6.635 10.5724 6.635 10.7779C6.635 10.976 6.69105 11.1386 6.80316 11.2656C6.919 11.3889 7.0909 11.4506 7.31885 11.4506ZM12.072 10.2006H10.2559V11.1591C10.3344 11.0619 10.4465 10.9835 10.5922 10.9237C10.738 10.8602 10.8931 10.8284 11.0575 10.8284C11.3564 10.8284 11.6012 10.8938 11.7918 11.0246C11.9824 11.1554 12.1206 11.3235 12.2066 11.5291C12.2925 11.7309 12.3355 11.9476 12.3355 12.1793C12.3355 12.609 12.2122 12.9547 11.9655 13.2163C11.7226 13.4779 11.3751 13.6086 10.923 13.6086C10.4969 13.6086 10.1569 13.5021 9.90278 13.2891C9.64867 13.0761 9.5048 12.7977 9.47117 12.4539H10.2335C10.2671 12.6034 10.3419 12.723 10.4577 12.8127C10.5773 12.9024 10.7286 12.9472 10.9117 12.9472C11.1322 12.9472 11.2985 12.8781 11.4106 12.7398C11.5227 12.6015 11.5788 12.4184 11.5788 12.1905C11.5788 11.9588 11.5209 11.7832 11.405 11.6636C11.2929 11.5403 11.1266 11.4786 10.9061 11.4786C10.7492 11.4786 10.6184 11.5178 10.5138 11.5963C10.4091 11.6748 10.3344 11.7794 10.2895 11.9102H9.53843V9.51113H12.072V10.2006ZM12.8431 10.5257C12.8431 10.2417 12.9253 10.0194 13.0897 9.85867C13.2579 9.69798 13.4728 9.61764 13.7343 9.61764C13.9959 9.61764 14.2089 9.69798 14.3733 9.85867C14.5415 10.0194 14.6256 10.2417 14.6256 10.5257C14.6256 10.8134 14.5415 11.0377 14.3733 11.1983C14.2089 11.359 13.9959 11.4394 13.7343 11.4394C13.4728 11.4394 13.2579 11.359 13.0897 11.1983C12.9253 11.0377 12.8431 10.8134 12.8431 10.5257ZM16.4417 9.6849L14.2388 13.6086H13.4765L15.6738 9.6849H16.4417ZM13.7287 10.0885C13.5232 10.0885 13.4204 10.2342 13.4204 10.5257C13.4204 10.8209 13.5232 10.9685 13.7287 10.9685C13.8296 10.9685 13.9081 10.933 13.9642 10.862C14.0202 10.7873 14.0482 10.6752 14.0482 10.5257C14.0482 10.2342 13.9417 10.0885 13.7287 10.0885ZM15.3038 12.7622C15.3038 12.4745 15.386 12.2521 15.5505 12.0952C15.7186 11.9345 15.9335 11.8542 16.1951 11.8542C16.4567 11.8542 16.6678 11.9345 16.8285 12.0952C16.9929 12.2521 17.0751 12.4745 17.0751 12.7622C17.0751 13.05 16.9929 13.2742 16.8285 13.4349C16.6678 13.5956 16.4567 13.6759 16.1951 13.6759C15.9298 13.6759 15.7149 13.5956 15.5505 13.4349C15.386 13.2742 15.3038 13.05 15.3038 12.7622ZM16.1895 12.325C15.9765 12.325 15.87 12.4708 15.87 12.7622C15.87 13.0575 15.9765 13.2051 16.1895 13.2051C16.3987 13.2051 16.5034 13.0575 16.5034 12.7622C16.5034 12.4708 16.3987 12.325 16.1895 12.325Z" fill="white"/>
</svg>
