<svg width="22" height="26" viewBox="0 0 22 26" fill="none" xmlns="http://www.w3.org/2000/svg">
<path d="M21.916 11.7417C21.916 5.79775 17.0973 0.979004 11.1533 0.979004C5.20937 0.979004 0.390625 5.79775 0.390625 11.7417C0.390625 16.7232 3.77609 20.9138 8.37197 22.1406L10.4542 24.7974C10.8103 25.2508 11.4963 25.2508 11.8525 24.7974L13.9347 22.1406C18.5306 20.9149 21.916 16.7243 21.916 11.7417Z" fill="#2E2E2E"/>
<path d="M11.1529 3.60252C11.1529 3.21556 11.4671 2.89894 11.8528 2.92986C13.3615 3.05081 14.8174 3.56115 16.0758 4.41634C17.5279 5.40318 18.6499 6.80365 19.2962 8.43604C19.9425 10.0684 20.0833 11.8574 19.7003 13.5708C19.3173 15.2842 18.4282 16.8429 17.1484 18.0448C15.8686 19.2466 14.2571 20.0361 12.523 20.3107C10.7889 20.5854 9.01234 20.3325 7.42376 19.585C5.83517 18.8375 4.50792 17.6298 3.6142 16.1186C2.83971 14.809 2.42179 13.3239 2.39582 11.8106C2.38918 11.4237 2.72489 11.13 3.1111 11.1543V11.1543C3.4973 11.1786 3.78719 11.5118 3.79973 11.8986C3.83967 13.1309 4.18895 14.3375 4.82039 15.4052C5.57111 16.6746 6.68601 17.6891 8.02042 18.317C9.35483 18.945 10.8472 19.1574 12.3038 18.9266C13.7604 18.6959 15.114 18.0328 16.1891 17.0232C17.2642 16.0137 18.011 14.7043 18.3327 13.2651C18.6544 11.8258 18.5362 10.3231 17.9933 8.95191C17.4504 7.5807 16.5079 6.40431 15.2881 5.57536C14.2622 4.87813 13.0799 4.45377 11.8525 4.33653C11.4673 4.29973 11.1529 3.98949 11.1529 3.60252V3.60252Z" fill="#FAE100"/>
<path d="M8.30421 10.168L6.81319 13.6602H6.01723L7.51947 10.2577H5.60244V9.58507H8.30421V10.168ZM10.8931 10.594C10.8557 10.4371 10.7903 10.3194 10.6969 10.2409C10.6072 10.1624 10.4764 10.1232 10.3045 10.1232C10.0466 10.1232 9.85606 10.2278 9.73274 10.4371C9.61316 10.6426 9.55151 10.9789 9.54777 11.446C9.63745 11.2966 9.76825 11.1807 9.94014 11.0985C10.112 11.0126 10.2989 10.9696 10.5007 10.9696C10.7436 10.9696 10.9584 11.0219 11.1453 11.1265C11.3321 11.2312 11.4779 11.3844 11.5825 11.5862C11.6871 11.7842 11.7395 12.0234 11.7395 12.3037C11.7395 12.569 11.6853 12.8063 11.5769 13.0155C11.4723 13.2211 11.3172 13.3818 11.1117 13.4976C10.9061 13.6134 10.6614 13.6714 10.3774 13.6714C9.98872 13.6714 9.6823 13.5854 9.45808 13.4135C9.23761 13.2416 9.08252 13.0025 8.99284 12.696C8.90689 12.3859 8.86392 12.0047 8.86392 11.5525C8.86392 10.8687 8.98163 10.353 9.21705 10.0055C9.45248 9.6542 9.8243 9.47857 10.3325 9.47857C10.7249 9.47857 11.0294 9.58507 11.2462 9.79807C11.4629 10.0111 11.5881 10.2764 11.6217 10.594H10.8931ZM10.3213 11.6142C10.1233 11.6142 9.95696 11.6721 9.82243 11.788C9.6879 11.9038 9.62064 12.072 9.62064 12.2925C9.62064 12.5129 9.6823 12.6867 9.80561 12.8137C9.93267 12.9408 10.1102 13.0043 10.3381 13.0043C10.5399 13.0043 10.6987 12.9427 10.8146 12.8194C10.9342 12.696 10.9939 12.5297 10.9939 12.3205C10.9939 12.1037 10.936 11.9318 10.8202 11.8048C10.7081 11.6777 10.5418 11.6142 10.3213 11.6142ZM12.27 10.5772C12.27 10.2932 12.3522 10.0709 12.5166 9.91018C12.6848 9.74949 12.8997 9.66915 13.1612 9.66915C13.4228 9.66915 13.6358 9.74949 13.8003 9.91018C13.9684 10.0709 14.0525 10.2932 14.0525 10.5772C14.0525 10.865 13.9684 11.0892 13.8003 11.2499C13.6358 11.4105 13.4228 11.4909 13.1612 11.4909C12.8997 11.4909 12.6848 11.4105 12.5166 11.2499C12.3522 11.0892 12.27 10.865 12.27 10.5772ZM15.8686 9.73641L13.6657 13.6602H12.9034L15.1007 9.73641H15.8686ZM13.1556 10.14C12.9501 10.14 12.8473 10.2857 12.8473 10.5772C12.8473 10.8724 12.9501 11.02 13.1556 11.02C13.2565 11.02 13.335 10.9845 13.3911 10.9135C13.4471 10.8388 13.4751 10.7267 13.4751 10.5772C13.4751 10.2857 13.3686 10.14 13.1556 10.14ZM14.7307 12.8137C14.7307 12.526 14.813 12.3037 14.9774 12.1467C15.1455 11.986 15.3604 11.9057 15.622 11.9057C15.8836 11.9057 16.0947 11.986 16.2554 12.1467C16.4198 12.3037 16.502 12.526 16.502 12.8137C16.502 13.1015 16.4198 13.3257 16.2554 13.4864C16.0947 13.6471 15.8836 13.7274 15.622 13.7274C15.3567 13.7274 15.1418 13.6471 14.9774 13.4864C14.813 13.3257 14.7307 13.1015 14.7307 12.8137ZM15.6164 12.3765C15.4034 12.3765 15.2969 12.5223 15.2969 12.8137C15.2969 13.109 15.4034 13.2566 15.6164 13.2566C15.8257 13.2566 15.9303 13.109 15.9303 12.8137C15.9303 12.5223 15.8257 12.3765 15.6164 12.3765Z" fill="white"/>
</svg>
