<svg width="32" height="36" viewBox="0 0 32 36" fill="none" xmlns="http://www.w3.org/2000/svg">
<path d="M31.6441 16.1218C31.6441 7.63858 24.7667 0.76123 16.2835 0.76123C7.8002 0.76123 0.922852 7.63858 0.922852 16.1218C0.922852 23.2315 5.75462 29.2124 12.3139 30.9633L15.2856 34.7551C15.7939 35.4021 16.773 35.4021 17.2813 34.7551L20.253 30.9633C26.8123 29.2139 31.6441 23.2331 31.6441 16.1218Z" fill="#2E2E2E"/>
<path d="M16.2842 4.50537C16.2842 3.95309 16.7326 3.50121 17.2832 3.54535C19.3374 3.71003 21.3247 4.3807 23.0647 5.5042C25.0855 6.809 26.6869 8.66914 27.6767 10.8614C28.6666 13.0537 29.0029 15.4851 28.6453 17.8638C28.2876 20.2425 27.2513 22.4674 25.6606 24.2718C24.0698 26.0761 21.9923 27.3831 19.6772 28.0361C17.3621 28.689 14.9078 28.6601 12.6087 27.9528C10.3096 27.2455 8.26342 25.8899 6.71564 24.0486C5.38292 22.4631 4.46847 20.5755 4.04761 18.5581C3.93483 18.0175 4.32693 17.5159 4.87486 17.4467V17.4467C5.42279 17.3775 5.91832 17.7672 6.03933 18.3061C6.40666 19.9418 7.16163 21.4709 8.24661 22.7617C9.54674 24.3084 11.2655 25.4471 13.1968 26.0412C15.128 26.6353 17.1896 26.6596 19.1343 26.1112C21.079 25.5627 22.8241 24.4648 24.1603 22.9491C25.4966 21.4335 26.3671 19.5645 26.6675 17.5664C26.9679 15.5683 26.6854 13.526 25.8539 11.6845C25.0224 9.84294 23.6773 8.28042 21.9798 7.18439C20.5633 6.26974 18.9516 5.71237 17.2827 5.55295C16.7329 5.50043 16.2842 5.05766 16.2842 4.50537V4.50537Z" fill="#FAE100"/>
<path d="M12.2171 14.0214L10.0891 19.0054H8.95305L11.0971 14.1494H8.36105V13.1894H12.2171V14.0214ZM12.9039 14.7094C12.9305 14.176 13.1172 13.7654 13.4639 13.4774C13.8159 13.184 14.2772 13.0374 14.8479 13.0374C15.2372 13.0374 15.5705 13.1067 15.8479 13.2454C16.1252 13.3787 16.3332 13.5627 16.4719 13.7974C16.6159 14.0267 16.6879 14.288 16.6879 14.5814C16.6879 14.9174 16.5999 15.2027 16.4239 15.4374C16.2532 15.6667 16.0479 15.8214 15.8079 15.9014V15.9334C16.1172 16.0294 16.3572 16.2 16.5279 16.4454C16.7039 16.6907 16.7919 17.0054 16.7919 17.3894C16.7919 17.7094 16.7172 17.9947 16.5679 18.2454C16.4239 18.496 16.2079 18.6934 15.9199 18.8374C15.6372 18.976 15.2959 19.0454 14.8959 19.0454C14.2932 19.0454 13.8025 18.8934 13.4239 18.5894C13.0452 18.2854 12.8452 17.8374 12.8239 17.2454H13.9119C13.9225 17.5067 14.0105 17.7174 14.1759 17.8774C14.3465 18.032 14.5785 18.1094 14.8719 18.1094C15.1439 18.1094 15.3519 18.0347 15.4959 17.8854C15.6452 17.7307 15.7199 17.5334 15.7199 17.2934C15.7199 16.9734 15.6185 16.744 15.4159 16.6054C15.2132 16.4667 14.8985 16.3974 14.4719 16.3974H14.2399V15.4774H14.4719C15.2292 15.4774 15.6079 15.224 15.6079 14.7174C15.6079 14.488 15.5385 14.3094 15.3999 14.1814C15.2665 14.0534 15.0719 13.9894 14.8159 13.9894C14.5652 13.9894 14.3705 14.0587 14.2319 14.1974C14.0985 14.3307 14.0212 14.5014 13.9999 14.7094H12.9039ZM17.5489 14.6054C17.5489 14.2 17.6663 13.8827 17.9009 13.6534C18.1409 13.424 18.4476 13.3094 18.8209 13.3094C19.1943 13.3094 19.4983 13.424 19.7329 13.6534C19.9729 13.8827 20.0929 14.2 20.0929 14.6054C20.0929 15.016 19.9729 15.336 19.7329 15.5654C19.4983 15.7947 19.1943 15.9094 18.8209 15.9094C18.4476 15.9094 18.1409 15.7947 17.9009 15.5654C17.6663 15.336 17.5489 15.016 17.5489 14.6054ZM22.6849 13.4054L19.5409 19.0054H18.4529L21.5889 13.4054H22.6849ZM18.8129 13.9814C18.5196 13.9814 18.3729 14.1894 18.3729 14.6054C18.3729 15.0267 18.5196 15.2374 18.8129 15.2374C18.9569 15.2374 19.0689 15.1867 19.1489 15.0854C19.2289 14.9787 19.2689 14.8187 19.2689 14.6054C19.2689 14.1894 19.1169 13.9814 18.8129 13.9814ZM21.0609 17.7974C21.0609 17.3867 21.1783 17.0694 21.4129 16.8454C21.6529 16.616 21.9596 16.5014 22.3329 16.5014C22.7063 16.5014 23.0076 16.616 23.2369 16.8454C23.4716 17.0694 23.5889 17.3867 23.5889 17.7974C23.5889 18.208 23.4716 18.528 23.2369 18.7574C23.0076 18.9867 22.7063 19.1014 22.3329 19.1014C21.9543 19.1014 21.6476 18.9867 21.4129 18.7574C21.1783 18.528 21.0609 18.208 21.0609 17.7974ZM22.3249 17.1734C22.0209 17.1734 21.8689 17.3814 21.8689 17.7974C21.8689 18.2187 22.0209 18.4294 22.3249 18.4294C22.6236 18.4294 22.7729 18.2187 22.7729 17.7974C22.7729 17.3814 22.6236 17.1734 22.3249 17.1734Z" fill="white"/>
</svg>
