<svg width="98" height="29" viewBox="0 0 98 29" fill="none" xmlns="http://www.w3.org/2000/svg">
<path d="M60.7838 22.6556C55.0957 26.7661 46.8511 28.9593 39.7526 28.9593C29.7995 28.9593 20.8391 25.3501 14.0602 19.3471C13.5276 18.8751 14.0048 18.2317 14.6439 18.5993C21.9597 22.7726 31.0053 25.2831 40.3491 25.2831C46.6508 25.2831 53.5832 24.0049 59.9572 21.3522C60.9202 20.9512 61.7255 21.9705 60.7838 22.6556Z" fill="#FF9900"/>
<path d="M63.1485 20.003C62.4242 19.0924 58.3423 19.5728 56.5102 19.7858C55.9521 19.8527 55.8668 19.3765 56.3697 19.0339C59.6206 16.7907 64.9551 17.4381 65.5771 18.19C66.1992 18.9462 65.4152 24.1889 62.3603 26.6911C61.8916 27.0755 61.4442 26.8707 61.653 26.361C62.339 24.6817 63.8771 20.9179 63.1485 20.003Z" fill="#FF9900"/>
<path d="M56.638 3.19736V1.01675C56.638 0.686734 56.8936 0.465332 57.2005 0.465332H67.158C67.4775 0.465332 67.7331 0.690912 67.7331 1.01675V2.88405C67.7289 3.19736 67.4604 3.60674 66.9833 4.25423L61.8234 11.477C63.7408 11.431 65.7647 11.7109 67.503 12.6717C67.895 12.8889 68.0016 13.2064 68.0314 13.5197V15.8466C68.0314 16.164 67.6735 16.5358 67.2985 16.3436C64.235 14.7688 60.166 14.5975 56.7786 16.3603C56.4335 16.5442 56.0713 16.1766 56.0713 15.8591V13.6492C56.0713 13.2942 56.0757 12.6884 56.4378 12.1495L62.4156 3.7446H57.2133C56.8936 3.7446 56.638 3.5232 56.638 3.19736Z" fill="#221F1F"/>
<path d="M20.3147 16.803H17.2853C16.9956 16.7821 16.7654 16.5691 16.7441 16.2976V1.05421C16.7441 0.749256 17.004 0.506964 17.3279 0.506964H20.1529C20.4467 0.519488 20.681 0.740898 20.7025 1.01661V3.00924H20.7578C21.4949 1.08345 22.8796 0.185303 24.7459 0.185303C26.642 0.185303 27.8264 1.08345 28.6785 3.00924C29.4115 1.08345 31.0775 0.185303 32.8626 0.185303C34.1324 0.185303 35.5215 0.699124 36.3693 1.85209C37.328 3.13456 37.132 4.99768 37.132 6.63105L37.1277 16.2517C37.1277 16.5565 36.8678 16.803 36.544 16.803H33.5189C33.2163 16.7821 32.9735 16.5441 32.9735 16.2517V8.17251C32.9735 7.52919 33.0331 5.92506 32.8883 5.31517C32.6624 4.29169 31.985 4.00346 31.1072 4.00346C30.3744 4.00346 29.6075 4.48386 29.2964 5.2525C28.9854 6.02114 29.0153 7.30779 29.0153 8.17251V16.2517C29.0153 16.5565 28.7552 16.803 28.4315 16.803H25.4063C25.0995 16.7821 24.8609 16.5441 24.8609 16.2517L24.8567 8.17251C24.8567 6.4723 25.1421 3.97003 22.9905 3.97003C20.8132 3.97003 20.8983 6.40965 20.8983 8.17251V16.2517C20.8983 16.5565 20.6385 16.803 20.3147 16.803Z" fill="#221F1F"/>
<path d="M76.306 0.185303C80.8012 0.185303 83.2341 3.97003 83.2341 8.78241C83.2341 13.4319 80.5455 17.1206 76.306 17.1206C71.892 17.1206 69.4888 13.3358 69.4888 8.6195C69.4888 3.87395 71.9217 0.185303 76.306 0.185303ZM76.3317 3.29747C74.099 3.29747 73.9584 6.28014 73.9584 8.1391C73.9584 10.0022 73.9285 13.9791 76.306 13.9791C78.6538 13.9791 78.7645 10.7709 78.7645 8.81583C78.7645 7.52919 78.7092 5.9919 78.3128 4.7721C77.972 3.71104 77.2946 3.29747 76.3317 3.29747Z" fill="#221F1F"/>
<path d="M89.0629 16.803H86.0462C85.7438 16.7821 85.5008 16.5441 85.5008 16.2517L85.4966 1.00407C85.5223 0.724188 85.7735 0.506964 86.0804 0.506964H88.8882C89.1523 0.519488 89.3696 0.694947 89.4293 0.93306V3.26406H89.4847C90.3325 1.17953 91.5214 0.185303 93.6134 0.185303C94.9725 0.185303 96.2977 0.665705 97.1498 1.98159C97.9424 3.20139 97.9424 5.2525 97.9424 6.72712V16.3226C97.9083 16.59 97.6569 16.803 97.3586 16.803H94.3206C94.0437 16.7821 93.8136 16.5817 93.7838 16.3226V8.04302C93.7838 6.37622 93.9798 3.93662 91.8877 3.93662C91.1507 3.93662 90.4731 4.4212 90.1365 5.15642C89.7106 6.08799 89.6552 7.01536 89.6552 8.04302V16.2517C89.6509 16.5565 89.3867 16.803 89.0629 16.803Z" fill="#221F1F"/>
<path d="M8.98542 9.52202V8.8787C6.79537 8.8787 4.48177 9.33822 4.48177 11.8697C4.48177 13.1522 5.15924 14.0211 6.32243 14.0211C7.17458 14.0211 7.93726 13.5073 8.41874 12.6718C9.01524 11.6442 8.98542 10.6792 8.98542 9.52202ZM12.0404 16.7615C11.8401 16.9369 11.5504 16.9495 11.3246 16.8325C10.319 16.0137 10.1401 15.6336 9.58619 14.8524C7.92448 16.515 6.74852 17.0121 4.59255 17.0121C2.0446 17.0121 0.059082 15.4707 0.059082 12.3836C0.059082 9.97319 1.39271 8.33146 3.28876 7.5294C4.93342 6.81924 7.22998 6.69392 8.98542 6.49758V6.11326C8.98542 5.40727 9.04081 4.5718 8.619 3.96189C8.24831 3.41465 7.54102 3.18907 6.91893 3.18907C5.76427 3.18907 4.73316 3.76973 4.48177 4.97283C4.43064 5.24019 4.23039 5.50335 3.95769 5.51589L1.01776 5.20676C0.770631 5.15245 0.497941 4.95611 0.566114 4.58432C1.24358 1.09202 4.46047 0.0393066 7.34076 0.0393066C8.81498 0.0393066 10.7409 0.423628 11.904 1.51811C13.3783 2.86741 13.2377 4.66788 13.2377 6.62709V11.2556C13.2377 12.6467 13.8257 13.2566 14.3796 14.0086C14.5756 14.2759 14.6182 14.5976 14.371 14.7981C13.7532 15.3036 12.654 16.2434 12.0489 16.7699L12.0404 16.7615Z" fill="#221F1F"/>
<path d="M48.2564 9.52202V8.8787C46.0664 8.8787 43.7528 9.33822 43.7528 11.8697C43.7528 13.1522 44.4303 14.0211 45.5935 14.0211C46.4456 14.0211 47.2083 13.5073 47.6897 12.6718C48.2863 11.6442 48.2564 10.6792 48.2564 9.52202ZM51.3114 16.7615C51.1112 16.9369 50.8214 16.9495 50.5955 16.8325C49.59 16.0137 49.4111 15.6336 48.8572 14.8524C47.1954 16.515 46.0194 17.0121 43.8636 17.0121C41.3156 17.0121 39.3301 15.4707 39.3301 12.3836C39.3301 9.97319 40.6637 8.33146 42.5597 7.5294C44.2044 6.81924 46.501 6.69392 48.2564 6.49758V6.11326C48.2564 5.40727 48.3118 4.5718 47.89 3.96189C47.5193 3.41465 46.812 3.18907 46.1899 3.18907C45.0352 3.18907 44.0042 3.76973 43.7528 4.97283C43.7016 5.24019 43.5013 5.50335 43.2286 5.51589L40.2888 5.20676C40.0416 5.15245 39.7689 4.95611 39.8371 4.58432C40.5145 1.09202 43.7315 0.0393066 46.6118 0.0393066C48.086 0.0393066 50.0119 0.423628 51.1751 1.51811C52.6493 2.86741 52.5087 4.66788 52.5087 6.62709V11.2556C52.5087 12.6467 53.0967 13.2566 53.6506 14.0086C53.8466 14.2759 53.8892 14.5976 53.642 14.7981C53.0242 15.3036 51.9249 16.2434 51.3199 16.7699L51.3114 16.7615Z" fill="#221F1F"/>
</svg>
