<svg width="89" height="28" viewBox="0 0 89 28" fill="none" xmlns="http://www.w3.org/2000/svg">
<g clip-path="url(#clip0_7093_4455)">
<path d="M88.3814 19.1381C88.23 19.1381 88.0921 19.2342 88.021 19.435C87.1087 21.9888 85.8763 23.5079 84.8615 23.5079C84.2786 23.5079 84.0426 22.8706 84.0426 21.8709C84.0426 19.3695 85.5691 14.0655 86.3387 11.647C86.4277 11.3545 86.4857 11.0926 86.4857 10.87C86.4857 10.1671 86.094 9.82227 85.1241 9.82227C84.0784 9.82227 82.9524 10.2239 81.8577 12.1054C81.4795 10.4465 80.336 9.72186 78.7384 9.72186C76.8916 9.72186 75.1073 10.8874 73.6388 12.7777C72.1703 14.6679 70.4435 15.2878 69.1443 14.9822C70.0788 12.7384 70.4256 11.0621 70.4256 9.81788C70.4256 7.86654 69.4422 6.68786 67.8538 6.68786C65.4372 6.68786 64.0442 8.94919 64.0442 11.3283C64.0442 13.1662 64.8945 15.0564 66.7635 15.9732C65.1969 19.4481 62.9095 22.5912 62.0417 22.5912C60.9205 22.5912 60.5911 17.2086 60.6535 13.3583C60.6936 11.1493 60.8804 11.0359 60.8804 10.3679C60.8804 9.98377 60.6269 9.72186 59.6077 9.72186C57.2314 9.72186 56.4971 11.695 56.3859 13.9607C56.3501 14.8217 56.2127 15.6757 55.9766 16.5058C54.9841 19.9807 52.9371 22.6174 51.6021 22.6174C50.9835 22.6174 50.8146 22.0106 50.8146 21.2161C50.8146 18.7147 52.243 15.589 52.243 12.9217C52.243 10.9617 51.3665 9.72186 49.7152 9.72186C47.7707 9.72186 45.1985 11.9919 42.7645 16.2438C43.5655 12.9872 43.8949 9.83537 41.5229 9.83537C41.0084 9.8429 40.5032 9.97166 40.05 10.2108C39.8978 10.2806 39.7706 10.3937 39.6849 10.5354C39.5992 10.6771 39.5589 10.8408 39.5694 11.0053C39.7964 14.4715 36.7214 23.3508 33.8067 23.3508C33.2771 23.3508 33.019 22.7876 33.019 21.8796C33.019 19.3739 34.5409 14.0829 35.3063 11.6601C35.4042 11.3458 35.4576 11.0752 35.4576 10.8394C35.4576 10.1758 35.0393 9.83537 34.0914 9.83537C33.0501 9.83537 31.9199 10.2239 30.8296 12.1054C30.4469 10.4465 29.3032 9.72186 27.7057 9.72186C25.0846 9.72186 22.1565 12.4415 20.8705 15.9863C19.1484 20.7184 15.6773 25.289 11.0048 25.289C6.764 25.289 4.52565 21.8272 4.52565 16.3573C4.52565 8.46026 10.4352 2.00811 14.8185 2.00811C16.9144 2.00811 17.9157 3.31774 17.9157 5.32586C17.9157 7.75742 16.5318 8.88806 16.5318 9.81353C16.5318 10.0973 16.772 10.3767 17.2482 10.3767C19.1528 10.3767 21.3956 8.18087 21.3956 5.18616C21.3956 2.19146 18.917 0 14.5337 0C7.2891 0 0 7.1506 0 16.3137C0 23.604 3.6668 28 10.008 28C14.3334 28 18.1115 24.6997 20.1496 20.8494C20.381 24.0405 21.8584 25.7081 24.1101 25.7081C26.1126 25.7081 27.7324 24.5382 28.9695 22.4821C29.4456 24.6342 30.7094 25.6863 32.3515 25.6863C34.2338 25.6863 35.8091 24.5164 37.3088 22.3424C37.2865 24.0493 37.6826 25.6558 39.1911 25.6558C39.9031 25.6558 40.7531 25.4942 40.9044 24.8831C42.493 18.4397 46.4179 13.1793 47.6194 13.1793C47.9754 13.1793 48.0735 13.5154 48.0735 13.9127C48.0735 15.6632 46.814 19.2516 46.814 21.5435C46.814 24.0187 47.8864 25.6558 50.1026 25.6558C52.5589 25.6558 55.0552 22.7047 56.7196 18.3916C57.2405 22.4209 58.3661 25.6732 60.1282 25.6732C62.2913 25.6732 66.1314 21.2074 68.4589 16.4796C69.3711 16.5931 70.7415 16.5625 72.059 15.6501C71.498 17.0427 71.169 18.5663 71.169 20.0898C71.169 24.4771 73.305 25.7081 75.1426 25.7081C77.1407 25.7081 78.7606 24.5382 80.0023 22.4821C80.4115 24.3374 81.4572 25.6819 83.3795 25.6819C86.388 25.6819 89 22.6654 89 20.1902C89 19.5354 88.7151 19.1381 88.3814 19.1381ZM25.9435 23.2766C24.7286 23.2766 24.2525 22.0761 24.2525 20.2863C24.2525 17.178 26.4197 11.9875 28.7114 11.9875C29.7127 11.9875 30.0909 13.1444 30.0909 14.5588C30.0909 17.715 28.0305 23.2766 25.9435 23.2766ZM67.5554 14C66.8303 13.1531 66.5676 12.0006 66.5676 10.9748C66.5676 9.70876 67.0392 8.63921 67.6042 8.63921C68.1696 8.63921 68.3433 9.1849 68.3433 9.94448C68.3433 11.2149 67.8804 13.0701 67.5554 14ZM76.9763 23.2766C75.7612 23.2766 75.2853 21.8971 75.2853 20.2863C75.2853 17.2872 77.4522 11.9875 79.7619 11.9875C80.7631 11.9875 81.1191 13.1357 81.1191 14.5588C81.1191 17.715 79.0944 23.2766 76.9763 23.2766Z" fill="url(#paint0_linear_7093_4455)"/>
</g>
<defs>
<linearGradient id="paint0_linear_7093_4455" x1="8.50735" y1="3.28004e-06" x2="88.8452" y2="23.1525" gradientUnits="userSpaceOnUse">
<stop stop-color="#00BBC6"/>
<stop offset="0.489354" stop-color="#355AE4"/>
<stop offset="1" stop-color="#7225E3"/>
</linearGradient>
<clipPath id="clip0_7093_4455">
<rect width="89" height="28" fill="white"/>
</clipPath>
</defs>
</svg>
