<svg width="121" height="23" viewBox="0 0 121 23" fill="none" xmlns="http://www.w3.org/2000/svg">
<g clip-path="url(#clip0_7093_4557)">
<path d="M25.3724 1.87153C23.4214 0.995181 21.3494 0.356481 19.1866 0C18.9143 0.46046 18.6118 1.0843 18.4001 1.57446C16.0997 1.24768 13.816 1.24768 11.5473 1.57446C11.3356 1.0843 11.0179 0.46046 10.7608 0C8.58295 0.356481 6.51092 0.995181 4.57351 1.87153C0.656329 7.54553 -0.402374 13.0858 0.126976 18.5519C2.72834 20.4086 5.239 21.5375 7.70577 22.2802C8.31074 21.4781 8.85522 20.6165 9.32407 19.7105C8.43174 19.3837 7.58478 18.9827 6.76807 18.5073C6.97981 18.3589 7.19156 18.1955 7.38817 18.0321C12.3187 20.2453 17.6591 20.2453 22.529 18.0321C22.7408 18.1955 22.9374 18.3589 23.1492 18.5073C22.3324 18.9827 21.4855 19.3837 20.5931 19.7105C21.062 20.6165 21.6065 21.4781 22.2114 22.2802C24.6767 21.5375 27.2025 20.4086 29.7902 18.5519C30.4405 12.2244 28.7602 6.72865 25.3724 1.87153ZM10.0047 15.1802C8.52246 15.1802 7.31252 13.8583 7.31252 12.2393C7.31252 10.6203 8.49221 9.29823 10.0047 9.29823C11.5019 9.29823 12.727 10.6203 12.6967 12.2393C12.6967 13.8583 11.5019 15.1802 10.0047 15.1802ZM19.9428 15.1802C18.4606 15.1802 17.2491 13.8583 17.2491 12.2393C17.2491 10.6203 18.4303 9.29823 19.9428 9.29823C21.4401 9.29823 22.6652 10.6203 22.6349 12.2393C22.6349 13.8583 21.4553 15.1802 19.9428 15.1802Z" fill="#5862E3"/>
<path d="M40.2715 4.66333H46.7009C48.2435 4.66333 49.5593 4.90095 50.6332 5.37628C51.707 5.85162 52.5086 6.5052 53.038 7.35179C53.5672 8.19848 53.8395 9.1639 53.8395 10.2631C53.8395 11.3326 53.5673 12.2981 53.0077 13.1744C52.4481 14.0359 51.6012 14.734 50.4668 15.239C49.3325 15.744 47.9259 15.9966 46.2471 15.9966H40.2715V4.66333ZM46.1715 13.115C47.215 13.115 48.0167 12.8624 48.5763 12.3426C49.1359 11.8376 49.4233 11.1246 49.4233 10.2483C49.4233 9.43128 49.1662 8.77769 48.667 8.2876C48.1679 7.79742 47.4118 7.54489 46.3984 7.54489H44.3869V13.115H46.1715Z" fill="#5862E3"/>
<path d="M63.853 15.9826C62.9606 15.7598 62.1591 15.433 61.4482 14.9874V12.2989C61.9927 12.7148 62.7035 13.0416 63.611 13.3089C64.5184 13.5763 65.3957 13.71 66.2427 13.71C66.6358 13.71 66.9383 13.6654 67.135 13.5615C67.3316 13.4575 67.4374 13.3387 67.4374 13.1901C67.4374 13.0267 67.377 12.893 67.2711 12.789C67.1652 12.6851 66.9535 12.5959 66.6358 12.5068L64.6545 12.0761C63.5203 11.8236 62.7186 11.4523 62.2346 11.0066C61.7507 10.561 61.5239 9.95209 61.5239 9.20935C61.5239 8.58547 61.7356 8.03597 62.1439 7.57549C62.5674 7.11502 63.1573 6.75851 63.9286 6.50599C64.6999 6.25356 65.5923 6.11987 66.6358 6.11987C67.5585 6.11987 68.4054 6.209 69.1767 6.41696C69.948 6.60996 70.5833 6.86249 71.0824 7.15958V9.69957C70.5681 9.40245 69.9632 9.16479 69.2977 8.98654C68.6171 8.80829 67.9215 8.71916 67.2106 8.71916C66.1821 8.71916 65.6679 8.89742 65.6679 9.23907C65.6679 9.40246 65.7435 9.52129 65.9099 9.61045C66.0763 9.69957 66.3636 9.77384 66.7871 9.86297L68.4356 10.1601C69.5095 10.3382 70.311 10.665 70.8404 11.1255C71.3698 11.586 71.6269 12.2543 71.6269 13.1604C71.6269 14.1408 71.1883 14.928 70.311 15.4924C69.4339 16.0717 68.1936 16.3539 66.5905 16.3539C65.6528 16.3241 64.7453 16.2053 63.853 15.9826Z" fill="#5862E3"/>
<path d="M75.7121 15.6414C74.7743 15.1809 74.0484 14.572 73.5795 13.7996C73.0955 13.0272 72.8687 12.1508 72.8687 11.1704C72.8687 10.205 73.1107 9.32863 73.6098 8.57116C74.1089 7.79875 74.8348 7.20458 75.7877 6.75905C76.7405 6.32828 77.89 6.10547 79.2209 6.10547C80.8694 6.10547 82.2306 6.44711 83.3195 7.13031V10.0861C82.9414 9.83362 82.4878 9.61081 81.9735 9.46232C81.4593 9.29892 80.9148 9.22465 80.3401 9.22465C79.3116 9.22465 78.5252 9.4029 77.9353 9.77421C77.3606 10.1456 77.0732 10.6209 77.0732 11.215C77.0732 11.7943 77.3455 12.2696 77.9202 12.641C78.4797 13.0122 79.2965 13.2053 80.3552 13.2053C80.8996 13.2053 81.4441 13.1312 81.9735 12.9678C82.5029 12.8044 82.9717 12.6261 83.3498 12.3884V15.2552C82.1398 15.9682 80.7333 16.3246 79.1452 16.3246C77.7992 16.3246 76.6648 16.087 75.7121 15.6414Z" fill="#5862E3"/>
<path d="M87.6314 15.6414C86.6785 15.1809 85.9526 14.5719 85.4535 13.7846C84.9544 12.9974 84.6973 12.1211 84.6973 11.1407C84.6973 10.1753 84.9544 9.29892 85.4535 8.54146C85.9526 7.78389 86.6785 7.18973 87.6163 6.75905C88.5539 6.32828 89.6882 6.10547 90.9904 6.10547C92.2912 6.10547 93.4255 6.31343 94.3632 6.75905C95.3009 7.18973 96.0269 7.78389 96.526 8.54146C97.025 9.29892 97.267 10.1604 97.267 11.1407C97.267 12.1062 97.025 12.9974 96.526 13.7846C96.0269 14.5719 95.316 15.1958 94.3632 15.6414C93.4103 16.087 92.2912 16.3246 90.9904 16.3246C89.7034 16.3246 88.5842 16.087 87.6314 15.6414ZM92.639 12.7747C93.0322 12.3885 93.244 11.8537 93.244 11.215C93.244 10.5615 93.0473 10.0564 92.639 9.67023C92.2307 9.28407 91.6862 9.09096 91.0056 9.09096C90.2948 9.09096 89.7487 9.28407 89.3404 9.67023C88.9472 10.0564 88.7355 10.5615 88.7355 11.215C88.7355 11.8685 88.9321 12.3885 89.3404 12.7747C89.7487 13.1757 90.2948 13.3687 91.0056 13.3687C91.6862 13.3539 92.2458 13.1609 92.639 12.7747Z" fill="#5862E3"/>
<path d="M107.386 6.69886V10.1895C106.962 9.92215 106.418 9.78847 105.752 9.78847C104.875 9.78847 104.194 10.0558 103.725 10.5756C103.256 11.0955 103.014 11.9125 103.014 13.0116V15.9824H98.9761V6.53546H102.939V9.55076C103.151 8.45155 103.514 7.63467 103.998 7.11477C104.482 6.59488 105.117 6.31274 105.888 6.31274C106.462 6.31274 106.962 6.44643 107.386 6.69886Z" fill="#5862E3"/>
<path d="M121 4.33716V15.9971H116.962V13.873C116.614 14.6752 116.099 15.2842 115.404 15.7C114.707 16.1159 113.844 16.3239 112.816 16.3239C111.908 16.3239 111.107 16.1011 110.426 15.6703C109.746 15.2396 109.217 14.6306 108.854 13.873C108.491 13.1007 108.309 12.2392 108.309 11.2886C108.294 10.2934 108.491 9.40221 108.899 8.61494C109.292 7.82776 109.867 7.21874 110.593 6.77312C111.319 6.32749 112.15 6.10468 113.088 6.10468C115.009 6.10468 116.296 6.92166 116.962 8.57038V4.33716H121ZM116.357 12.6996C116.765 12.3134 116.977 11.7935 116.977 11.1698C116.977 10.5607 116.78 10.0706 116.372 9.69929C115.964 9.32794 115.419 9.13484 114.737 9.13484C114.056 9.13484 113.511 9.32794 113.104 9.71415C112.695 10.1003 112.499 10.5904 112.499 11.2143C112.499 11.8381 112.695 12.3283 113.104 12.7145C113.511 13.1007 114.041 13.2938 114.721 13.2938C115.404 13.2938 115.948 13.1007 116.357 12.6996Z" fill="#5862E3"/>
<path d="M57.5613 7.10031C58.7212 7.10031 59.6635 6.26896 59.6635 5.24364C59.6635 4.21816 58.7212 3.38696 57.5613 3.38696C56.3997 3.38696 55.459 4.21816 55.459 5.24364C55.459 6.26896 56.3997 7.10031 57.5613 7.10031Z" fill="#5862E3"/>
<path d="M59.6635 8.37671C58.3779 8.92622 56.7748 8.94107 55.459 8.37671V15.9965H59.6635V8.37671Z" fill="#5862E3"/>
</g>
<defs>
<clipPath id="clip0_7093_4557">
<rect width="121" height="23" fill="white"/>
</clipPath>
</defs>
</svg>
