<svg width="103" height="27" viewBox="0 0 103 27" fill="none" xmlns="http://www.w3.org/2000/svg">
<g clip-path="url(#clip0_7093_4521)">
<path fill-rule="evenodd" clip-rule="evenodd" d="M102.84 20.4618C98.5362 27.7308 91.7196 25.6216 89.6723 23.9701C88.801 24.559 87.2733 25.8497 85.236 25.7007C80.8974 25.3834 79.3437 19.2075 79.3437 19.2075C79.3749 19.2322 78.0514 19.6624 77.3361 19.6547C77.3268 21.4659 75.7551 25.7924 71.5134 25.737C66.7536 25.6752 65.786 18.6114 65.786 18.6114C65.786 18.6114 65.3123 19.2666 63.5113 19.9192C63.602 18.5277 63.5357 25.5252 57.8308 25.6281C53.3208 25.7095 52.1034 18.5025 52.1034 18.5025C52.1034 18.5025 51.321 19.3121 49.8047 19.5929C49.9011 18.1788 49.7444 25.6518 44.0389 25.6281C40.1831 25.6121 38.8656 21.1886 38.968 20.5746C39.0988 19.7922 37.6649 25.7381 33.9197 25.6455C32.3741 25.6003 31.2219 24.4856 30.4988 22.9995C29.5309 24.1027 28.1256 25.6455 26.5492 25.6455C23.7194 25.6455 22.4719 23.2878 22.6832 16.554C22.7012 15.7554 22.6433 15.4412 21.8463 15.3218C21.3679 15.2422 20.878 15.0917 20.3596 15.0123C20.1934 15.5646 18.7842 25.4658 13.9385 25.6537C12.3128 25.7168 11.4239 24.314 10.6939 23.2729C9.57489 24.7475 8.09771 25.7007 5.99334 25.7007C2.4287 25.7007 0 22.8302 0 19.2893C0 15.7482 2.4287 12.878 5.99334 12.878C6.6236 12.878 6.80053 12.968 7.37632 13.1354C6.1922 2.39611 8.98862 0.717717 11.4349 0.717717C13.7834 0.717717 17.7957 6.14749 12.1501 19.9203C13.4035 24.0283 16.1057 23.796 17.4042 15.3393C17.6684 13.6204 16.9618 11.3006 18.0609 10.9769C20.0701 10.3852 20.2833 12.1604 21.2253 12.4562C22.2214 12.7688 22.8028 12.7383 23.7591 12.9372C25.3932 13.2551 26.0308 14.1294 25.8317 16.077C25.5927 18.5411 25.1744 22.1277 26.4496 22.5648C27.3691 22.8823 29.048 20.9827 29.3427 19.9434C29.6372 18.904 29.6987 18.5483 29.7248 17.7859C29.7647 16.1566 29.8147 14.9623 30.0936 13.7301C30.213 13.2532 30.3491 12.9375 30.8906 12.9159C31.3363 12.9046 32.1512 12.7709 32.5099 13.0491C32.9881 13.4069 32.9283 13.7701 32.8734 14.7257C32.3173 28.3518 36.5973 21.5496 37.8734 16.103C37.419 9.94421 37.7309 0.830495 41.6054 0.677641C43.6204 0.598149 44.5112 2.20612 44.6092 3.40633C44.8863 6.79615 43.3339 12.4113 41.2922 16.1875C40.1253 23.8926 46.394 25.4161 47.3965 19.2659C45.7564 18.4891 43.9838 15.345 45.4262 13.8127C46.2356 12.9528 49.6047 14.1882 49.6598 16.8825C51.3124 16.4423 51.5331 15.5128 51.556 15.6668C51.1017 9.50802 51.523 0.830575 55.3977 0.677719C57.4125 0.598227 58.3031 2.2062 58.4011 3.40641C58.6783 6.79622 57.1258 12.4114 55.0844 16.1877C53.9174 23.8926 60.1863 25.4163 61.1885 19.2661C59.9742 19.0326 57.4108 15.6884 58.8898 13.8129C59.6802 12.8105 63.0369 14.8949 63.4128 16.9717C65.0003 16.5242 65.2159 15.6243 65.2387 15.7758C64.7843 9.61716 65.2056 0.939722 69.0803 0.786868C71.0951 0.707375 71.9857 2.31535 72.0837 3.51556C72.3609 6.90536 70.8084 12.5207 68.7667 16.2969C67.6 24.002 73.8688 25.5252 74.8712 19.375C73.2025 19.0983 70.8309 15.5672 72.7397 13.7608C73.5023 13.039 76.4162 14.9126 77.0983 17.05C78.0461 17.0137 78.636 16.6881 78.7625 16.6553C77.2495 9.42523 78.3758 0.75024 82.5439 0.677826C84.7968 0.638725 86.9992 1.89102 86.0325 8.76946C85.1097 15.3323 81.7927 18.0864 81.8004 18.1285C81.9934 18.9148 83.6955 25.4947 87.9817 22.0229C87.7598 21.5224 87.5377 21.0112 87.4135 20.3918C86.7031 16.7839 88.0985 12.7088 91.8912 12.0502C94.0642 11.6729 96.1112 12.7267 96.4348 15.1025C96.9673 18.9901 93.4432 21.8055 92.1031 22.4163C91.5029 22.0766 97.544 25.936 101.129 18.2017C101.337 17.7601 101.588 17.7975 101.912 18.0251C102.142 18.1859 103.448 19.4185 102.84 20.4618ZM8.5863 18.334C8.40388 17.7908 8.02951 16.5937 7.89713 16.0751C7.16805 15.4435 6.64766 15.3409 5.71182 15.3409C3.63211 15.3409 2.40802 17.2563 2.40802 19.3217C2.40802 21.3869 3.74157 23.3026 5.8213 23.3026C7.62363 23.3026 8.99536 22.0819 9.41386 20.3539C9.12093 19.6802 8.83035 19.0611 8.5863 18.334ZM11.3839 3.56047C9.9226 3.56047 9.42689 7.03294 9.52308 9.99528C9.60818 12.6144 10.3429 14.9201 10.724 15.9533C10.8208 16.0828 10.8028 15.9985 10.8892 16.1358C13.4265 10.598 12.3741 3.56047 11.3839 3.56047ZM41.8141 3.66955C39.9254 3.45378 39.9376 11.2911 40.172 13.0491C41.153 11.4859 42.8569 4.09043 41.8141 3.66955ZM55.606 3.66955C53.7173 3.45378 53.7295 11.2911 53.9641 13.0491C54.9449 11.4859 56.6491 4.09043 55.606 3.66955ZM69.2888 3.77859C67.3999 3.56282 67.4121 11.4001 67.6467 13.1583C68.6275 11.595 70.3317 4.19944 69.2888 3.77859ZM82.7524 3.21077C79.8097 3.79939 80.4949 13.5727 80.9419 15.2868C84.4081 10.5445 84.4795 3.03263 82.7524 3.21077ZM93.7808 15.4241C93.6312 14.8009 92.8831 14.4679 92.3667 14.55C90.8892 14.751 89.4562 16.584 90.0109 19.3747C90.1344 19.9963 90.4433 20.5684 90.4383 20.5494C93.745 18.3396 94.0261 16.5982 93.7808 15.4241ZM31.4699 10.7587C31.0476 10.7588 30.6348 10.6341 30.2836 10.4005C29.9325 10.1668 29.6587 9.83472 29.497 9.44609C29.3353 9.05748 29.2931 8.62983 29.3755 8.21725C29.4577 7.80467 29.6612 7.42568 29.9597 7.12821C30.2583 6.83074 30.6387 6.62816 31.0529 6.54608C31.467 6.464 31.8964 6.5061 32.2866 6.66709C32.6767 6.82806 33.0101 7.10068 33.2447 7.45045C33.4793 7.80023 33.6046 8.21145 33.6046 8.6321C33.6046 8.91136 33.5494 9.18789 33.4421 9.44589C33.3349 9.7039 33.1777 9.93833 32.9794 10.1358C32.7811 10.3333 32.5458 10.4899 32.2868 10.5968C32.0278 10.7037 31.7503 10.7587 31.4699 10.7587Z" fill="#0D0C22"/>
</g>
<defs>
<clipPath id="clip0_7093_4521">
<rect width="103" height="27" fill="white"/>
</clipPath>
</defs>
</svg>
