<svg width="86" height="28" viewBox="0 0 86 28" fill="none" xmlns="http://www.w3.org/2000/svg">
<g clip-path="url(#clip0_7093_4464)">
<path d="M10.5912 0.00244141H11.356C14.011 0.0600148 16.6228 1.12512 18.4986 3.01065C17.806 3.71592 17.0989 4.39241 16.4207 5.09768C15.3674 4.14772 14.0976 3.41366 12.7123 3.15458C10.6634 2.72278 8.45564 3.1114 6.73852 4.27726C4.86268 5.5007 3.59288 7.57334 3.31872 9.78991C3.0157 11.9777 3.63617 14.2806 5.0647 15.9791C6.4355 17.6343 8.52778 18.6706 10.6922 18.7426C12.7123 18.8577 14.8191 18.2388 16.2909 16.8283C17.4452 15.8351 17.9791 14.3238 18.1523 12.8557C15.757 12.8557 13.3617 12.8701 10.9664 12.8557V9.89067H21.0526C21.5721 13.0716 20.8217 16.6555 18.3976 18.9297C16.7815 20.5417 14.5449 21.4917 12.265 21.6788C10.0573 21.8947 7.77745 21.4773 5.81503 20.4122C3.46302 19.16 1.58718 17.0442 0.66369 14.5541C-0.202082 12.2656 -0.216511 9.67477 0.591542 7.37183C1.32745 5.2704 2.74154 3.41366 4.55966 2.11826C6.30564 0.837255 8.42678 0.131981 10.5912 0.00244141Z" fill="#3780FF"/>
<path d="M68.4536 0.750977H71.5415V21.3047C70.517 21.3047 69.4781 21.3191 68.4536 21.2903C68.468 14.4534 68.4536 7.60221 68.4536 0.750977V0.750977Z" fill="#38B137"/>
<path d="M27.921 7.87548C29.8257 7.51565 31.8891 7.91866 33.4619 9.05574C34.8904 10.0633 35.8861 11.6465 36.1891 13.3737C36.5787 15.3744 36.0881 17.5622 34.7894 19.1455C33.3898 20.9158 31.0955 21.8658 28.8589 21.7219C26.8099 21.6067 24.8186 20.5848 23.6066 18.9152C22.2357 17.0728 21.9039 14.5396 22.6542 12.3806C23.4045 10.0633 25.5257 8.29289 27.921 7.87548V7.87548ZM28.3539 10.6102C27.5747 10.8117 26.8532 11.2579 26.3337 11.8912C24.9341 13.5609 25.0206 16.2812 26.5646 17.8357C27.4448 18.7281 28.7723 19.1455 29.9988 18.9008C31.1388 18.6993 32.1344 17.9364 32.6827 16.9289C33.6351 15.2161 33.3609 12.8556 31.9035 11.517C30.9656 10.6534 29.5948 10.2936 28.3539 10.6102Z" fill="#FA3913"/>
<path d="M43.2163 7.87557C45.3951 7.45816 47.776 8.06268 49.4065 9.58837C52.0616 11.9633 52.3501 16.4108 50.0847 19.1455C48.7139 20.8727 46.4918 21.8227 44.2985 21.722C42.2062 21.6644 40.1428 20.6281 38.9018 18.9153C37.5022 17.0297 37.1991 14.4389 37.9928 12.2367C38.7864 9.99139 40.8642 8.27858 43.2163 7.87557V7.87557ZM43.6491 10.6103C42.8699 10.8118 42.1485 11.258 41.629 11.8769C40.2438 13.5178 40.3015 16.1949 41.7877 17.7638C42.6679 18.6994 44.0387 19.1599 45.3085 18.9009C46.434 18.685 47.4441 17.9365 47.9924 16.929C48.9303 15.2018 48.6562 12.8413 47.1844 11.5027C46.2465 10.6391 44.8756 10.2936 43.6491 10.6103Z" fill="#FCBD06"/>
<path d="M56.1883 8.71058C57.8477 7.67426 60.0554 7.3864 61.8446 8.27878C62.4074 8.52347 62.8691 8.94088 63.3164 9.35828C63.3309 8.96966 63.3164 8.56665 63.3309 8.16364C64.2977 8.17803 65.2644 8.16364 66.2456 8.17803V20.873C66.2312 22.7873 65.7406 24.8167 64.3554 26.2129C62.8403 27.753 60.5171 28.228 58.4248 27.9113C56.1883 27.5803 54.2403 25.9538 53.3745 23.8956C54.2403 23.4782 55.1493 23.1471 56.044 22.7585C56.549 23.9387 57.5735 24.9463 58.8577 25.1766C60.1419 25.4069 61.6282 25.0902 62.4651 24.0251C63.3597 22.9312 63.3597 21.4343 63.3164 20.0957C62.6527 20.7434 61.8879 21.3192 60.9644 21.5351C58.9587 22.0964 56.751 21.4055 55.2071 20.0525C53.6487 18.6996 52.7252 16.6125 52.8117 14.5399C52.855 12.1938 54.1826 9.93402 56.1883 8.71058V8.71058ZM59.1752 10.5529C58.295 10.6969 57.4725 11.1862 56.9097 11.8627C55.5534 13.4748 55.5534 16.0512 56.9242 17.6345C57.7034 18.57 58.9587 19.0882 60.1708 18.9586C61.3107 18.8435 62.3641 18.1238 62.9268 17.1307C63.8792 15.4467 63.7205 13.1581 62.4362 11.69C61.6426 10.7832 60.3728 10.337 59.1752 10.5529V10.5529Z" fill="#3780FF"/>
<path d="M75.2498 9.44435C76.9814 7.8323 79.6508 7.28535 81.873 8.13456C83.9797 8.92619 85.3216 10.9269 85.9998 12.9851C82.8686 14.2805 79.7518 15.5615 76.6206 16.8569C77.0535 17.6773 77.7173 18.4258 78.6119 18.7281C79.8673 19.1742 81.3679 19.0159 82.4213 18.1811C82.8398 17.8645 83.1716 17.447 83.4891 17.044C84.2827 17.5766 85.0763 18.0947 85.87 18.6273C84.7445 20.3113 82.8542 21.4916 80.8196 21.6787C78.5686 21.9522 76.1733 21.0886 74.7159 19.3326C72.3206 16.5691 72.5515 11.9344 75.2498 9.44435V9.44435ZM76.7938 12.1071C76.3032 12.8124 76.1012 13.676 76.1156 14.5252C78.2079 13.6616 80.3002 12.798 82.3924 11.92C82.0461 11.114 81.2092 10.6246 80.3579 10.4951C78.9871 10.2504 77.5586 10.9844 76.7938 12.1071V12.1071Z" fill="#FA3913"/>
</g>
<defs>
<clipPath id="clip0_7093_4464">
<rect width="86" height="28" fill="white"/>
</clipPath>
</defs>
</svg>
