<svg width="84" height="32" viewBox="0 0 84 32" fill="none" xmlns="http://www.w3.org/2000/svg">
<g clip-path="url(#clip0_7093_4507)">
<path d="M4.39872 6.93555H0.683105V24.8004H4.39872V6.93555Z" fill="black"/>
<path d="M12.4515 0.128906H8.73584V13.7402H12.4515V0.128906Z" fill="black"/>
<path d="M12.4515 17.9961H8.73584V31.6074H12.4515V17.9961Z" fill="#31D891"/>
<path d="M20.5002 6.93555H16.7847V24.8004H20.5002V6.93555Z" fill="#31D891"/>
<path d="M41.4804 24.7891V16.8556H32.1895V24.7891H29.6738V6.93164H32.1895V14.5636H41.4804V6.93164H43.9973V24.7891H41.4804Z" fill="black"/>
<path d="M57.5564 21.3376C56.8636 23.4786 54.8862 25.1657 52.014 25.1657C48.7033 25.1657 45.8022 22.7988 45.8022 18.6934C45.8022 14.8901 48.5998 12.2954 51.7055 12.2954C55.5051 12.2954 57.6352 14.8641 57.6352 18.6432C57.6366 18.8959 57.6195 19.1484 57.5841 19.3985H48.2888C48.34 21.5643 49.9319 23.0785 52.0103 23.0785C54.0123 23.0785 55.0137 21.9958 55.4755 20.6349L57.5564 21.3376ZM55.1159 17.4843C55.0648 15.7464 53.9101 14.3868 51.7289 14.3868C49.7016 14.3868 48.4693 15.9229 48.3658 17.4843H55.1159Z" fill="black"/>
<path d="M62.5751 17.8629L65.9116 17.3848C66.6567 17.2834 66.8618 16.9057 66.8618 16.4784C66.8618 15.2953 66.0662 14.3127 64.1929 14.3127C62.4987 14.3127 61.5485 15.3454 61.3939 16.7564L59.0846 16.2271C59.3408 13.9097 61.4716 12.2993 64.1411 12.2993C67.836 12.2993 69.2746 14.3647 69.2746 16.7322V22.7997C69.2666 23.4659 69.3179 24.1316 69.428 24.7889H67.0674C66.9731 24.2482 66.93 23.6999 66.9388 23.1514C66.4 24.0088 65.1677 25.1666 62.9605 25.1666C60.445 25.1666 58.8271 23.4541 58.8271 21.541C58.8271 19.3741 60.445 18.1649 62.5751 17.8629ZM66.8618 19.6006V19.0471L63.088 19.6006C62.0614 19.7524 61.2917 20.3306 61.2917 21.4135C61.2917 22.3199 62.0614 23.1761 63.2938 23.1761C65.2699 23.1774 66.8618 22.245 66.8618 19.6006Z" fill="black"/>
<path d="M71.5508 29.5755V12.6747H73.8867V14.5643C74.5542 13.3557 76.0174 12.3979 78.0194 12.3979C81.7143 12.3979 83.6923 15.1939 83.6923 18.7198C83.6923 22.3218 81.561 25.1172 77.9424 25.1172C76.0426 25.1172 74.6059 24.2361 73.9396 23.1521V29.5755H71.5508ZM77.5828 14.4887C75.3757 14.4887 73.9125 16.3015 73.9125 18.7185C73.9125 21.2118 75.3757 23.0004 77.5828 23.0004C79.8164 23.0004 81.2279 21.2118 81.2279 18.7185C81.2279 16.3015 79.8423 14.4887 77.5828 14.4887Z" fill="black"/>
</g>
<defs>
<clipPath id="clip0_7093_4507">
<rect width="84" height="32" fill="white"/>
</clipPath>
</defs>
</svg>
