<svg width="72" height="29" viewBox="0 0 72 29" fill="none" xmlns="http://www.w3.org/2000/svg">
<g clip-path="url(#clip0_7093_4535)">
<path d="M0.741699 0.299316V2.24232H14.4667V0.299316H0.741699ZM16.4125 0.299316V2.24232H35.9731C35.9731 2.24232 33.9751 0.299316 31.3291 0.299316H16.4125ZM39.8098 0.299316V2.24232H51.6421L50.9401 0.299316H39.8098ZM60.1273 0.299316L59.4253 2.24232H71.1523V0.299316H60.1273ZM0.741699 4.07838V6.02138H14.4667V4.07838H0.741699ZM16.4125 4.0811V6.02047H38.2411C38.2411 6.02047 37.9864 4.52516 37.5418 4.0811H16.4125ZM39.8098 4.0811V6.02047H52.9498L52.3 4.0811H39.8098ZM58.7224 4.0811L58.0726 6.02047H71.1514V4.0811H58.7224ZM4.6864 7.85744V9.80318H10.6309V7.85744H4.6864ZM20.3572 7.85744V9.80318H26.3017V7.85744H20.3572ZM32.0842 7.85744V9.80318H38.0287C38.0287 9.80318 38.4067 8.77547 38.4067 7.85744H32.0842ZM43.7554 7.85744V9.80318H54.2854L53.5834 7.85744H43.7554ZM57.4291 7.85744L56.7235 9.80318H67.3147V7.85744H57.4291ZM4.6873 11.6392V13.5822H10.6318V11.6392H4.6873ZM20.3581 11.6392V13.5822H35.5411C35.5411 13.5822 36.8101 12.5854 37.2151 11.6392H20.3581ZM43.7554 11.6392V13.5822H49.6999V12.5002L50.0779 13.5822H60.9679L61.3729 12.5002V13.5822H67.3174V11.6392H56.1574L55.5652 13.285L54.9712 11.6392H43.7554ZM4.6864 15.4183V17.3613H10.6309V15.4183H4.6864ZM20.3572 15.4183V17.3613H37.2142C36.8092 16.4188 35.5402 15.4183 35.5402 15.4183H20.3572ZM43.7545 15.4183V17.3613H49.699V15.4183H43.7545ZM50.779 15.4183L51.499 17.3613H59.6638L60.3478 15.4183H50.779ZM61.3702 15.4183V17.3613H67.3147V15.4183H61.3702ZM4.68819 19.1974V21.1404H10.6327V19.1974H4.68819ZM20.359 19.1974V21.1404H26.3035V19.1974H20.359ZM32.086 19.1974V21.1404H38.4076C38.4076 20.2232 38.0296 19.1974 38.0296 19.1974H32.086ZM43.7572 19.1974V21.1404H49.7017V19.1974H43.7572ZM52.1308 19.1974L52.8274 21.1404H58.2994L59.0014 19.1974H52.1308ZM61.372 19.1974V21.1404H67.3165V19.1974H61.372ZM0.851498 22.9764V24.9221H14.5765V22.9764H0.851498ZM16.4152 22.9764V24.9221H37.5454C37.99 24.4763 38.2447 22.9764 38.2447 22.9764H16.4152ZM39.9196 22.9764V24.9221H49.6981V22.9764H39.9196ZM53.4826 22.9764L54.199 24.9221H56.9836L57.6559 22.9764H53.4826ZM61.372 22.9764V24.9221H71.2612V22.9764H61.372ZM0.851498 26.7582V28.7012H14.5765V26.7582H0.851498ZM16.4152 26.7582V28.6976H31.3291C33.9751 28.6976 35.9731 26.7582 35.9731 26.7582H16.4152ZM39.9196 26.7582V28.7012H49.6981V26.7582H39.9196ZM54.8416 26.7582L55.5301 28.6958L55.6489 28.6985L56.3482 26.7591L54.8416 26.7582ZM61.3729 26.7582V28.7012H71.2621V26.7582H61.3729Z" fill="black"/>
</g>
<defs>
<clipPath id="clip0_7093_4535">
<rect width="72" height="29" fill="white"/>
</clipPath>
</defs>
</svg>
