<svg width="109" height="23" viewBox="0 0 109 23" fill="none" xmlns="http://www.w3.org/2000/svg">
<g clip-path="url(#clip0_7093_4457)">
<path d="M45.2768 4.59986V18.3998H42.8581V7.57069H42.8259L38.5046 18.3998H36.8922L32.4741 7.57069H32.4419V18.3998H30.2168V4.59986H33.6996L37.6984 14.8221H37.7629L41.9874 4.59986H45.2768ZM47.2762 5.65403C47.2762 5.27069 47.4052 4.95125 47.6954 4.69569C47.9857 4.44014 48.3082 4.31236 48.6951 4.31236C49.1144 4.31236 49.4691 4.44014 49.7271 4.69569C49.9851 4.95125 50.1463 5.27069 50.1463 5.65403C50.1463 6.03736 50.0173 6.3568 49.7271 6.61236C49.4368 6.86791 49.1144 6.99569 48.6951 6.99569C48.2759 6.99569 47.9534 6.86791 47.6954 6.61236C47.4374 6.32486 47.2762 6.00541 47.2762 5.65403ZM49.8883 8.49708V18.3998H47.5342V8.49708H49.8883ZM57.0153 16.7068C57.37 16.7068 57.757 16.6429 58.1762 16.4512C58.5954 16.2915 58.9824 16.0679 59.3371 15.8124V17.9845C58.9502 18.2082 58.5309 18.3679 58.0472 18.4637C57.5635 18.5595 57.0475 18.6234 56.467 18.6234C54.9836 18.6234 53.7904 18.1762 52.8874 17.2499C51.9522 16.3235 51.5008 15.1415 51.5008 13.736C51.5008 12.1387 51.9845 10.829 52.9197 9.8068C53.8549 8.78458 55.1771 8.27347 56.9185 8.27347C57.37 8.27347 57.8215 8.33736 58.2407 8.43319C58.6922 8.52903 59.0469 8.68875 59.3049 8.81653V11.0526C58.9502 10.797 58.5632 10.5735 58.2084 10.4457C57.8215 10.3179 57.4345 10.2221 57.0475 10.2221C56.1123 10.2221 55.3706 10.5095 54.7901 11.1165C54.2096 11.7234 53.9516 12.5221 53.9516 13.5443C53.9516 14.5346 54.2419 15.3332 54.7901 15.8762C55.3383 16.4193 56.08 16.7068 57.0153 16.7068ZM66.0126 8.33736C66.2061 8.33736 66.3673 8.33736 66.5286 8.3693C66.6898 8.40125 66.8188 8.43319 66.9155 8.46514V10.829C66.7866 10.7332 66.6253 10.6373 66.3673 10.5734C66.1093 10.5095 65.8513 10.4457 65.4966 10.4457C64.9161 10.4457 64.4324 10.7012 64.0454 11.1804C63.6584 11.6596 63.4327 12.3943 63.4327 13.4165V18.3998H61.0786V8.49708H63.4327V10.0624H63.465C63.6907 9.5193 64.0132 9.10403 64.4324 8.78458C64.8839 8.49708 65.3999 8.33736 66.0126 8.33736ZM67.0445 13.6082C67.0445 11.979 67.5283 10.6693 68.4312 9.71097C69.3664 8.75264 70.6564 8.27347 72.301 8.27347C73.849 8.27347 75.0744 8.72069 75.9451 9.64708C76.8158 10.5735 77.2673 11.8193 77.2673 13.3846C77.2673 14.9818 76.7836 16.2596 75.8806 17.2179C74.9454 18.1762 73.6877 18.6554 72.0753 18.6554C70.5274 18.6554 69.3019 18.2082 68.399 17.3137C67.496 16.3874 67.0445 15.1415 67.0445 13.6082ZM69.4954 13.5123C69.4954 14.5345 69.7212 15.3332 70.2049 15.8762C70.6886 16.4193 71.3658 16.7068 72.2366 16.7068C73.075 16.7068 73.7522 16.4512 74.2037 15.8762C74.6552 15.3332 74.8809 14.5345 74.8809 13.4484C74.8809 12.3943 74.6552 11.5957 74.2037 11.0207C73.7522 10.4776 73.075 10.1901 72.2688 10.1901C71.3981 10.1901 70.7531 10.4776 70.2694 11.0526C69.7212 11.6595 69.4954 12.4582 69.4954 13.5123ZM80.7824 11.1165C80.7824 11.4359 80.8792 11.7234 81.1049 11.9151C81.3306 12.1068 81.7821 12.3304 82.5238 12.6179C83.459 13.0012 84.1363 13.4165 84.491 13.8637C84.878 14.3429 85.0715 14.886 85.0715 15.5568C85.0715 16.4832 84.7167 17.2179 83.975 17.7929C83.2655 18.3679 82.2658 18.6234 81.0404 18.6234C80.6212 18.6234 80.1697 18.5595 79.6537 18.4637C79.1377 18.3679 78.7185 18.2401 78.3638 18.0804V15.7804C78.783 16.0679 79.2667 16.3234 79.7505 16.4832C80.2342 16.6429 80.6857 16.7387 81.1049 16.7387C81.6209 16.7387 82.0401 16.6749 82.2658 16.5151C82.5238 16.3554 82.6528 16.1318 82.6528 15.7804C82.6528 15.461 82.5238 15.2054 82.2658 14.9498C82.0079 14.7262 81.4919 14.4707 80.7824 14.1832C79.9117 13.8318 79.299 13.4165 78.9442 12.9693C78.5895 12.522 78.396 11.9471 78.396 11.2443C78.396 10.3499 78.7508 9.6151 79.4602 9.0401C80.1697 8.4651 81.1049 8.17764 82.2336 8.17764C82.5883 8.17764 82.9753 8.20958 83.3945 8.30541C83.8138 8.40125 84.2008 8.49708 84.491 8.59291V10.861C84.1685 10.6693 83.8138 10.4776 83.3945 10.3179C82.9753 10.1582 82.5561 10.0943 82.1691 10.0943C81.7176 10.0943 81.3629 10.1901 81.1372 10.3499C80.9114 10.5735 80.7824 10.797 80.7824 11.1165ZM86.0712 13.6082C86.0712 11.979 86.5549 10.6693 87.4579 9.71097C88.3931 8.75264 89.683 8.27347 91.3277 8.27347C92.8756 8.27347 94.1011 8.72069 94.9718 9.64708C95.8425 10.5735 96.294 11.8193 96.294 13.3846C96.294 14.9818 95.8102 16.2596 94.9073 17.2179C93.9721 18.1762 92.7144 18.6554 91.1019 18.6554C89.554 18.6554 88.3286 18.2082 87.4256 17.3137C86.5549 16.3874 86.0712 15.1415 86.0712 13.6082ZM88.5221 13.5123C88.5221 14.5345 88.7478 15.3332 89.2315 15.8762C89.7153 16.4193 90.3925 16.7068 91.2632 16.7068C92.1016 16.7068 92.7789 16.4512 93.2303 15.8762C93.6818 15.3332 93.9076 14.5345 93.9076 13.4484C93.9076 12.3943 93.6818 11.5957 93.2303 11.0207C92.7789 10.4776 92.1016 10.1901 91.2954 10.1901C90.4247 10.1901 89.7797 10.4776 89.296 11.0526C88.78 11.6595 88.5221 12.4582 88.5221 13.5123ZM104.13 10.4137H100.615V18.3998H98.2289V10.4137H96.5519V8.49708H98.2289V7.12347C98.2289 6.10125 98.5836 5.23875 99.2608 4.56791C99.938 3.89708 100.809 3.57764 101.873 3.57764C102.163 3.57764 102.421 3.60958 102.647 3.60958C102.873 3.60958 103.066 3.67347 103.227 3.73736V5.74986C103.163 5.71791 103.002 5.65403 102.808 5.59014C102.615 5.52625 102.389 5.4943 102.131 5.4943C101.647 5.4943 101.26 5.65403 101.002 5.94153C100.744 6.22903 100.615 6.70819 100.615 7.28319V8.46514H104.13V6.22903L106.484 5.52625V8.46514H108.871V10.3818H106.484V15.0137C106.484 15.6207 106.613 16.036 106.807 16.2915C107.033 16.5471 107.387 16.6749 107.871 16.6749C108 16.6749 108.161 16.6429 108.355 16.579C108.548 16.5151 108.71 16.4512 108.839 16.3554V18.2721C108.677 18.3679 108.452 18.4318 108.097 18.4957C107.742 18.5596 107.42 18.5915 107.065 18.5915C106.065 18.5915 105.324 18.3359 104.84 17.8248C104.356 17.3137 104.098 16.5151 104.098 15.461L104.13 10.4137Z" fill="#737373"/>
<path d="M11.029 0H0V10.925H11.029V0Z" fill="#F25022"/>
<path d="M23.2189 0H12.1899V10.925H23.2189V0Z" fill="#7FBA00"/>
<path d="M11.029 12.0752H0V23.0002H11.029V12.0752Z" fill="#00A4EF"/>
<path d="M23.2189 12.0752H12.1899V23.0002H23.2189V12.0752Z" fill="#FFB900"/>
</g>
<defs>
<clipPath id="clip0_7093_4457">
<rect width="109" height="23" fill="white"/>
</clipPath>
</defs>
</svg>
