<svg width="107" height="25" viewBox="0 0 107 25" fill="none" xmlns="http://www.w3.org/2000/svg">
<g clip-path="url(#clip0_7093_4471)">
<path d="M8.47803 13.4576V16.4083C10.7383 16.4056 12.9053 15.5375 14.5035 13.9944C16.1018 12.4512 17.0008 10.3591 17.0036 8.17676H13.9475C13.9457 9.57676 13.3689 10.919 12.3436 11.9089C11.3182 12.8989 9.92808 13.4558 8.47803 13.4576Z" fill="#3BE081"/>
<path d="M8.47717 21.5856C7.03756 21.5856 5.65694 21.0335 4.63899 20.0506C3.62104 19.0678 3.04916 17.7348 3.04916 16.3449C3.04916 14.9549 3.62104 13.6219 4.63899 12.639C5.65694 11.6562 7.03756 11.104 8.47717 11.104V8.17506C7.3655 8.17354 6.26445 8.38341 5.23681 8.79275C4.20917 9.20203 3.2751 9.80282 2.48792 10.5606C1.70075 11.3185 1.07588 12.2187 0.649002 13.2097C0.222125 14.2007 0.00159671 15.2632 8.6386e-06 16.3365C-0.00157943 17.4098 0.215804 18.4729 0.639746 19.4651C1.06369 20.4573 1.68589 21.3591 2.47082 22.1192C3.25575 22.8792 4.18805 23.4826 5.21447 23.8947C6.24089 24.3068 7.34132 24.5198 8.453 24.5213H8.47717V21.5856Z" fill="#0037FF"/>
<path d="M8.47803 21.5855V24.5144C10.7231 24.5144 12.8763 23.6533 14.4638 22.1206C16.0512 20.5878 16.9431 18.5089 16.9431 16.3413H13.9061C13.9052 17.7312 13.3331 19.0641 12.3154 20.0473C11.2978 21.0305 9.91771 21.5837 8.47803 21.5855Z" fill="#00CCFF"/>
<path d="M8.47803 5.24415V8.17309C10.7231 8.17309 12.8763 7.31204 14.4638 5.77927C16.0512 4.24651 16.9431 2.16764 16.9431 0H13.9061C13.9052 1.38999 13.3331 2.72284 12.3154 3.70601C11.2978 4.6892 9.91771 5.24238 8.47803 5.24415Z" fill="#861DFF"/>
<path d="M16.9922 5.24415V8.17309C19.2373 8.17309 21.3904 7.31204 22.9778 5.77927C24.5654 4.24651 25.4572 2.16764 25.4572 0H22.4219C22.421 1.39027 21.8487 2.72338 20.8306 3.70661C19.8126 4.68983 18.4321 5.24282 16.9922 5.24415Z" fill="#FF8110"/>
<path d="M39.5938 12.238H41.1572L41.5252 13.0353C41.7205 12.8627 41.9369 12.7137 42.1695 12.5916C42.4119 12.4718 42.6638 12.3709 42.9228 12.2897C43.244 12.1919 43.5793 12.144 43.9162 12.1479C44.4366 12.145 44.9515 12.2503 45.426 12.4565C45.9021 12.6615 46.3304 12.9571 46.6854 13.3255C47.0546 13.7118 47.3473 14.1601 47.5492 14.6483C47.9767 15.7219 47.9767 16.9105 47.5492 17.9842C47.3477 18.4725 47.0549 18.9209 46.6854 19.3069C46.3303 19.6757 45.902 19.9718 45.426 20.1776C44.9519 20.3833 44.4377 20.4891 43.9179 20.4879C43.6033 20.4936 43.2897 20.4519 42.9884 20.3644C42.7518 20.2916 42.5208 20.2024 42.2974 20.0975C42.0851 19.9842 41.8873 19.847 41.7083 19.6889V23.24H39.5938V12.238ZM43.6397 18.5413C43.9208 18.5477 44.2002 18.4973 44.4599 18.3933C44.7196 18.2893 44.9539 18.134 45.1479 17.9375C45.5544 17.535 45.7571 16.9962 45.756 16.3212C45.7706 16.0264 45.7245 15.7316 45.62 15.4541C45.5157 15.1766 45.3552 14.922 45.1479 14.705C44.9501 14.5139 44.7152 14.3623 44.4568 14.259C44.1982 14.1556 43.9212 14.1023 43.6415 14.1023C43.3617 14.1023 43.0846 14.1556 42.8261 14.259C42.5677 14.3623 42.3328 14.5139 42.135 14.705C41.7308 15.1086 41.5286 15.6473 41.5286 16.3212C41.5286 16.9951 41.7308 17.5339 42.135 17.9375C42.3289 18.134 42.5633 18.2893 42.823 18.3933C43.0827 18.4973 43.3621 18.5477 43.6432 18.5413H43.6397Z" fill="black"/>
<path d="M52.9278 20.495C52.5343 20.4995 52.1435 20.4304 51.7772 20.2915C51.435 20.1594 51.1271 19.956 50.8755 19.696C50.6194 19.4277 50.4199 19.1138 50.2881 18.7719C50.1409 18.3854 50.0688 17.976 50.0756 17.5643V14.1015H48.7886V12.4152H49.3397C50.0146 12.4152 50.352 12.0894 50.352 11.4378V10.2886H52.1919V12.2434H54.03V14.1066H52.1919V17.4809C52.1803 17.6213 52.1974 17.7625 52.2424 17.8965C52.2874 18.0305 52.3593 18.1547 52.4539 18.2619C52.5486 18.369 52.6642 18.4572 52.7941 18.5212C52.924 18.5853 53.0657 18.624 53.2111 18.6352C53.2686 18.64 53.3264 18.64 53.3839 18.6352C53.4633 18.6391 53.5429 18.6391 53.6223 18.6352C53.6805 18.6307 53.7383 18.6217 53.795 18.6084C53.8458 18.5957 53.895 18.5778 53.9419 18.5551V20.3315C53.8472 20.37 53.7488 20.3996 53.6482 20.4199C53.413 20.4775 53.1704 20.5029 52.9278 20.495Z" fill="black"/>
<path d="M56.8817 11.2606C56.5972 11.2675 56.319 11.1785 56.095 11.009C55.871 10.8394 55.7152 10.5998 55.6543 10.3313C55.5934 10.0629 55.6313 9.78227 55.7614 9.53786C55.8915 9.29338 56.1057 9.10036 56.3672 8.9918C56.6287 8.88332 56.9212 8.86615 57.1944 8.94325C57.4677 9.02036 57.7045 9.18687 57.8643 9.41431C58.0242 9.64174 58.097 9.91575 58.0702 10.1894C58.0435 10.463 57.9189 10.7191 57.7178 10.9136C57.6105 11.0236 57.4809 11.1111 57.337 11.1708C57.1932 11.2304 57.0383 11.2609 56.8817 11.2606ZM55.7778 12.238H57.8924V20.4111H55.7778V12.238Z" fill="black"/>
<path d="M59.9141 12.238H61.4775L61.8455 13.0353C62.0189 12.8684 62.2099 12.7197 62.4156 12.5916C62.6152 12.4726 62.8257 12.3716 63.0444 12.2897C63.3086 12.1925 63.5893 12.1445 63.8719 12.1479C64.2473 12.1387 64.6213 12.1952 64.9758 12.3147C65.2407 12.4078 65.4936 12.5304 65.7291 12.68C65.9401 12.8233 66.1214 13.0039 66.2628 13.2121C66.4649 13.007 66.6934 12.8281 66.9438 12.68C67.1954 12.5352 67.4603 12.413 67.735 12.3147C68.0587 12.2004 68.4008 12.1439 68.7456 12.1479C69.6663 12.1479 70.4001 12.4331 70.953 13.0002C71.5058 13.5674 71.7806 14.4097 71.7806 15.5222V20.4061H69.663V15.7007C69.6861 15.2745 69.5375 14.856 69.2482 14.5331C69.1386 14.4105 69.0052 14.31 68.8552 14.2373C68.706 14.1645 68.5428 14.121 68.3751 14.1093C68.208 14.0975 68.0402 14.1177 67.881 14.1687C67.7218 14.2197 67.5745 14.3004 67.4477 14.4064C67.4015 14.4461 67.3579 14.4884 67.3169 14.5331C67.0276 14.8558 66.879 15.2745 66.9041 15.7007V20.4061H64.7876V15.7007C64.8121 15.2745 64.664 14.8558 64.3746 14.5331C64.2651 14.4105 64.1314 14.3099 63.9815 14.2372C63.8316 14.1644 63.6683 14.1209 63.5009 14.1091C63.3336 14.0974 63.1655 14.1175 63.0062 14.1685C62.847 14.2195 62.6997 14.3004 62.5728 14.4064C62.5266 14.4456 62.4833 14.488 62.4432 14.5331C62.1541 14.856 62.0055 15.2745 62.0286 15.7007V20.4061H59.9141V12.238Z" fill="black"/>
<path d="M74.8128 11.2602C74.5275 11.2674 74.2481 11.1784 74.0235 11.0084C73.7983 10.8385 73.6418 10.5982 73.581 10.3289C73.5196 10.0596 73.5572 9.77818 73.688 9.53285C73.8181 9.28759 74.0334 9.09391 74.2956 8.98503C74.5579 8.87614 74.8511 8.85897 75.1252 8.93641C75.3993 9.01384 75.6371 9.18101 75.7969 9.40924C75.9574 9.63746 76.0301 9.91246 76.003 10.1869C75.9759 10.4614 75.8511 10.7182 75.649 10.9132C75.5413 11.0231 75.4119 11.1106 75.2679 11.1703C75.1246 11.23 74.9693 11.2606 74.8128 11.2602ZM73.7091 12.2376H75.8286V20.4107H73.7091V12.2376Z" fill="black"/>
<path d="M77.3833 18.7181L81.0616 14.1912H77.3833V12.238H83.7287V13.9244L80.0543 18.4613H83.9156V20.4145H77.3833V18.7181Z" fill="black"/>
<path d="M89.2532 20.4944C88.6925 20.4965 88.1377 20.3827 87.6258 20.1609C87.1231 19.9472 86.6674 19.6426 86.2837 19.2635C85.8946 18.8813 85.5822 18.4328 85.3629 17.9408C85.1384 17.4265 85.0234 16.8741 85.0234 16.3162C85.0234 15.7582 85.1384 15.2058 85.3629 14.6915C85.5822 14.1995 85.8946 13.751 86.2837 13.3689C86.6681 12.9902 87.1231 12.6857 87.6258 12.4715C88.1284 12.2596 88.67 12.1481 89.2182 12.1435C89.7664 12.1389 90.31 12.2413 90.8166 12.4448C91.3001 12.6431 91.738 12.9329 92.1033 13.2971C92.4811 13.6792 92.7776 14.1285 92.9778 14.6198C93.1971 15.16 93.306 15.736 93.2988 16.3162C93.2994 16.4082 93.2935 16.5001 93.2816 16.5913C93.2677 16.6798 93.2558 16.7665 93.2439 16.8499C93.2314 16.9333 93.2195 17.0334 93.2076 17.1151H87.322C87.4131 17.5083 87.6324 17.8629 87.9468 18.1276C88.3147 18.4162 88.7803 18.5619 89.2532 18.5362C89.4923 18.5411 89.7314 18.5113 89.9613 18.4479C90.1324 18.3963 90.2962 18.3246 90.4487 18.2343C90.5874 18.1462 90.7116 18.0382 90.8166 17.9141H93.0247C92.9018 18.2436 92.7314 18.5547 92.5181 18.8381C92.2869 19.1542 92.0075 19.4352 91.6905 19.6721C91.3543 19.9205 90.9824 20.121 90.5868 20.2676C90.1608 20.4218 89.7083 20.4987 89.2532 20.4944ZM91.2763 15.7007C91.1885 15.2445 90.9382 14.8323 90.5683 14.5357C90.1991 14.239 89.7334 14.0766 89.2532 14.0766C88.7724 14.0766 88.3074 14.239 87.9375 14.5357C87.5683 14.8323 87.318 15.2445 87.2301 15.7007H91.2763Z" fill="black"/>
<path d="M94.8608 9.21875H96.9757V20.4059H94.8608V9.21875Z" fill="black"/>
<path d="M100.188 23.3368C100.091 23.3368 99.9955 23.3334 99.9023 23.3268C99.825 23.3228 99.7484 23.3139 99.6725 23.3001C99.5978 23.2914 99.5239 23.2734 99.4532 23.2467V21.5604C99.8369 21.5848 100.217 21.4779 100.528 21.2585C100.783 21.0536 100.982 20.7912 101.108 20.4946L101.291 20.0509L98.0728 12.238H100.281L102.396 17.5639L104.334 12.238H106.542C105.941 13.7292 105.394 15.0786 104.904 16.2862C104.695 16.8066 104.489 17.317 104.287 17.8124C104.085 18.3078 103.906 18.7632 103.744 19.1719C103.584 19.5805 103.451 19.9207 103.34 20.1926C103.23 20.4645 103.168 20.6246 103.138 20.673C102.96 21.0964 102.755 21.5082 102.521 21.9057C102.347 22.2101 102.127 22.4882 101.869 22.7313C101.653 22.9342 101.397 23.0916 101.115 23.1933C100.817 23.2934 100.503 23.3419 100.188 23.3368Z" fill="black"/>
<path d="M31.7605 8.17505C30.4991 8.17505 29.2659 8.53623 28.217 9.21288C27.1681 9.88952 26.3506 10.8513 25.8679 11.9766C25.3851 13.1018 25.2588 14.34 25.5049 15.5347C25.751 16.7292 26.3585 17.8265 27.2505 18.6877C28.1425 19.549 29.2789 20.1355 30.5162 20.3731C31.7535 20.6107 33.0359 20.4888 34.2013 20.0227C35.3668 19.5566 36.3629 18.7673 37.0638 17.7545C37.7646 16.7418 38.1387 15.5512 38.1387 14.3332C38.1389 13.5245 37.9741 12.7236 37.6537 11.9764C37.3332 11.2291 36.8634 10.5501 36.271 9.97827C35.6788 9.40637 34.9756 8.95275 34.2016 8.64334C33.4277 8.33393 32.5982 8.17479 31.7605 8.17505ZM31.7605 18.3497C30.9358 18.3593 30.1269 18.1324 29.4359 17.6977C28.7449 17.263 28.2031 16.6401 27.8789 15.9079C27.5548 15.1757 27.463 14.3672 27.6152 13.5846C27.7674 12.802 28.1566 12.0806 28.7337 11.5117C29.3108 10.9429 30.0497 10.5522 30.8569 10.389C31.6641 10.2259 32.5033 10.2977 33.2682 10.5953C34.0332 10.893 34.6894 11.4031 35.1538 12.0611C35.6183 12.7191 35.8701 13.4953 35.8773 14.2916V14.3382C35.881 15.3974 35.4498 16.4147 34.6782 17.1676C33.9066 17.9204 32.8574 18.3472 31.7605 18.3547V18.3497Z" fill="black"/>
</g>
<defs>
<clipPath id="clip0_7093_4471">
<rect width="107" height="25" fill="white"/>
</clipPath>
</defs>
</svg>
