<svg width="113" height="26" viewBox="0 0 113 26" fill="none" xmlns="http://www.w3.org/2000/svg">
<g clip-path="url(#clip0_7093_4541)">
<path d="M56.6209 6.5C52.2288 6.5 49.0618 9.425 49.0618 13.8125C49.0618 18.2 52.6227 21.125 57.0189 21.125C59.6723 21.125 62.0117 20.0525 63.4598 18.2447L60.4163 16.4491C59.6127 17.3469 58.3913 17.8709 57.0189 17.8709C55.1131 17.8709 53.494 16.8553 52.8931 15.2303H64.0408C64.1281 14.7753 64.1801 14.3041 64.1801 13.8084C64.1801 9.425 61.0172 6.5 56.6209 6.5ZM52.8612 12.3906C53.3585 10.7697 54.7192 9.75 56.6209 9.75C58.5265 9.75 59.8872 10.7697 60.3806 12.3906H52.8612ZM51.9622 2.03125L40.9379 21.5313L29.9099 2.03125H34.0434L40.9341 14.2188L47.8246 2.03125H51.9622ZM14.7003 0L29.4006 26H0L14.7003 0ZM80.1732 13.8125C80.1732 16.25 81.7328 17.875 84.1516 17.875C85.7909 17.875 87.0202 17.1153 87.6527 15.8763L90.7081 17.6759C89.4429 19.8291 87.0719 21.125 84.1516 21.125C79.7554 21.125 76.5928 18.2 76.5928 13.8125C76.5928 9.425 79.7595 6.5 84.1516 6.5C87.0719 6.5 89.4391 7.79594 90.7081 9.94906L87.6527 11.7488C87.0202 10.5097 85.7909 9.75 84.1516 9.75C81.7368 9.75 80.1732 11.375 80.1732 13.8125ZM112.987 2.03125V20.7188H109.407V2.03125H112.987ZM99.4606 6.5C95.0684 6.5 91.9017 9.425 91.9017 13.8125C91.9017 18.2 95.4664 21.125 99.8586 21.125C102.512 21.125 104.851 20.0525 106.299 18.2447L103.256 16.4491C102.452 17.3469 101.231 17.8709 99.8586 17.8709C97.9528 17.8709 96.3336 16.8553 95.7327 15.2303H106.88C106.968 14.7753 107.02 14.3041 107.02 13.8084C107.02 9.425 103.857 6.5 99.4606 6.5ZM95.7009 12.3906C96.1984 10.7697 97.5551 9.75 99.4606 9.75C101.366 9.75 102.727 10.7697 103.22 12.3906H95.7009ZM75.3991 6.90625V10.8428C75.0014 10.725 74.5795 10.6438 74.126 10.6438C71.8146 10.6438 70.1476 12.2688 70.1476 14.7063V20.7188H66.5671V6.90625H70.1476V10.6438C70.1476 8.58 72.4987 6.90625 75.3991 6.90625Z" fill="black"/>
</g>
<defs>
<clipPath id="clip0_7093_4541">
<rect width="113" height="26" fill="white"/>
</clipPath>
</defs>
</svg>
