<svg width="87" height="35" viewBox="0 0 87 35" fill="none" xmlns="http://www.w3.org/2000/svg">
<g clip-path="url(#clip0_7093_4516)">
<path d="M85.6495 12.2294C85.1836 11.268 84.5574 10.39 83.7968 9.63207C83.6439 9.48632 83.4805 9.35226 83.3065 9.23108C83.176 9.1315 83.0402 9.03918 82.8991 8.95452H82.8701L82.8332 8.93325C82.6803 8.85183 82.5241 8.77833 82.364 8.71308H82.3224C81.9197 8.55671 81.4913 8.47621 81.0583 8.47588H80.8784C80.4025 8.50566 79.9385 8.6312 79.516 8.84602C79.0158 9.10713 78.5564 9.43818 78.153 9.82879H78.128L78.1036 9.85329C78.0878 9.87119 78.07 9.88724 78.0502 9.90117L77.9724 9.97348C77.6956 10.2298 77.4175 10.5074 77.0952 10.8318L76.8671 11.0658C76.5778 11.3506 76.2904 11.6378 76.0064 11.9273C76.0947 10.4106 76.1903 8.85777 76.2667 7.31658C76.2667 7.11979 76.2871 6.9156 76.3036 6.72205C76.361 6.04875 76.3748 5.37123 76.3445 4.69584V4.53098C76.3036 3.76093 76.239 2.60053 75.458 1.60605C74.8846 0.865781 73.7404 0 71.5621 0C71.0691 0.00327086 70.5768 0.0395172 70.0891 0.108488C69.2876 0.220441 68.4967 0.399059 67.7255 0.64242C65.3019 1.42524 63.9024 2.64839 63.5509 4.31081C63.2935 5.54247 63.7553 6.6146 64.057 7.32405L64.122 7.47719C64.3956 8.0994 64.7103 8.70245 65.0651 9.28319L65.3593 9.80119C66.1101 11.1441 66.8707 12.4817 67.6405 13.8142L66.472 13.4132L66.1747 13.309C65.7421 13.1526 65.3593 13.0197 65.0034 12.9069L64.9061 12.8793L64.8369 12.8591H64.7709C64.2332 12.682 63.6721 12.5834 63.1053 12.5665H63.0166C62.5694 12.5647 62.1264 12.6519 61.7144 12.8229C61.258 13.0122 60.8492 13.2951 60.5138 13.6536C60.4023 13.7832 60.2961 13.9173 60.1959 14.0556L60.1721 14.0875L60.1472 14.1237C59.941 14.4321 59.7726 14.7634 59.6454 15.1107V15.1352C59.299 16.1389 59.1264 17.1927 59.1349 18.2526C58.0944 14.2396 54.6831 11.2732 50.6586 11.2732C49.1978 11.2778 47.7644 11.6632 46.5043 12.39C45.7942 11.7994 44.9014 11.4631 43.9718 11.436C43.0422 11.409 42.1307 11.6928 41.3864 12.2411V10.1298C41.3613 9.06632 40.9177 8.05383 40.1489 7.30536C39.3802 6.55691 38.3462 6.13086 37.2645 6.11682C36.1682 6.12077 35.1183 6.55241 34.3452 7.31698C33.5722 8.08157 33.1394 9.11651 33.1417 10.1947V14.581C33.0388 14.4479 32.9287 14.3205 32.8118 14.1992C31.6249 12.9767 30.1311 12.0837 28.4812 11.6104C26.8195 11.1506 25.0609 11.1521 23.4 11.6147H23.3556C22.0165 11.9596 20.7782 12.6084 19.74 13.5089C19.4121 12.8312 18.8948 12.2592 18.2486 11.86C17.6024 11.4607 16.8539 11.2505 16.0908 11.2541C15.7036 11.2541 15.3196 11.3094 14.9486 11.4179C12.9077 12.0241 12.0912 13.9748 11.5936 15.1384C11.5482 15.2469 11.5071 15.3479 11.4638 15.4436C11.3405 15.7329 11.2227 15.9893 11.1286 16.1945C11.0337 16.3933 10.9464 16.5956 10.8668 16.8008C10.8095 16.9571 10.7608 17.0645 10.7046 17.2018C10.3639 16.5217 10.0196 15.8435 9.6717 15.1671L9.46619 14.7416C8.95243 13.6567 8.1813 12.0284 6.26367 11.4583C5.30769 11.171 4.27728 11.2432 3.37236 11.6608C2.46744 12.0784 1.75254 12.8117 1.36634 13.7184C0.439444 15.8733 1.59023 17.775 2.20672 18.7951C2.648 19.5183 3.21474 20.4755 3.74579 21.4722C3.97291 21.8731 4.05944 22.0423 4.56128 23.0005L4.63483 23.1335L5.27188 24.3375C5.4233 24.614 5.58986 24.931 5.78562 25.3012C5.99436 25.7022 6.23122 26.135 6.49188 26.6168C6.44754 26.6775 6.40211 26.7413 6.34912 26.8019L6.31234 26.8455L6.25502 26.8179C5.84802 26.6145 5.41621 26.4633 4.97012 26.3679C4.65554 26.2962 4.3337 26.2598 4.01077 26.2594C3.30426 26.2592 2.61013 26.4419 1.99821 26.7892C1.38629 27.1365 0.878146 27.6361 0.524887 28.2378C0.171982 28.8438 -0.00915537 29.5319 0.000356196 30.2303C0.00986778 30.9286 0.20968 31.6117 0.578966 32.2083C1.80222 34.2142 4.2963 34.9449 6.23555 34.9449C6.74929 34.947 7.26305 34.8949 7.76488 34.7885C12.1204 33.8579 14.0055 29.7311 15.3813 26.7179L15.6582 26.1116C15.9418 25.4722 16.2372 24.8378 16.544 24.2088L16.8176 23.6185C17.0958 24.4968 17.5039 25.33 18.0289 26.0914C18.3534 26.5658 18.7157 27.0136 19.1148 27.4284C19.5204 27.8358 19.9617 28.207 20.4333 28.5399C20.9091 28.8653 21.4175 29.1461 21.9475 29.3779C22.4882 29.6268 23.0539 29.8141 23.6368 29.9406C23.9937 30.0268 24.3572 30.0927 24.7228 30.1363C25.058 30.1715 25.3933 30.1863 25.7308 30.181H26.0282C27.2371 30.1823 28.4371 29.9786 29.5757 29.579C30.0992 29.4088 30.6065 29.1908 31.0899 28.9291C31.9494 28.4383 32.6551 27.7244 33.1297 26.8657C33.2554 27.8448 33.7385 28.7456 34.4892 29.4005C35.2399 30.0554 36.207 30.4197 37.2105 30.4256C38.0941 30.4256 38.9529 30.1438 39.6602 29.6226V30.8915C39.6602 31.9665 40.0945 32.9975 40.8675 33.7577C41.6405 34.5179 42.6889 34.9449 43.7821 34.9449C44.8753 34.9449 45.9237 34.5179 46.6967 33.7577C47.4696 32.9975 47.9039 31.9665 47.9039 30.8915V29.7843C48.7735 30.0821 49.6885 30.2342 50.61 30.2331C55.45 30.2331 59.388 25.9946 59.3966 20.785C59.4961 21.101 59.6335 21.4041 59.8044 21.6891C60.0639 22.0912 60.4036 22.4368 60.8048 22.7038C61.3812 23.082 62.0546 23.2922 62.7473 23.3101H63.0653C63.6042 23.2974 64.1397 23.2221 64.6606 23.0857H64.7471L67.0032 22.5837C66.6486 23.0655 66.3013 23.5345 65.9671 24.0004L65.7789 24.2609C65.5064 24.63 65.2727 24.9555 65.0651 25.2681L65.0078 25.3564L64.9667 25.4171L64.9472 25.4447V25.4735C64.6237 25.9366 64.3704 26.4436 64.1955 26.9785C64.0527 27.4312 64.0085 27.9085 64.0657 28.3793C64.1285 28.86 64.2961 29.3227 64.5546 29.7353V29.7555C64.6487 29.9002 64.7547 30.0406 64.8607 30.1565L64.8855 30.181L64.9061 30.2086C65.0197 30.3416 65.1462 30.466 65.2739 30.5862C65.4231 30.7319 65.5842 30.866 65.7551 30.9883C66.5623 31.5307 67.4448 31.9562 68.3748 32.2518C69.1676 32.5114 69.9908 32.6666 70.8233 32.7134H71.0612C71.1976 32.7148 71.3334 32.7081 71.4692 32.6932C71.6386 32.6794 71.8073 32.6571 71.9741 32.6251H72.0479C72.2186 32.5858 72.3886 32.5369 72.554 32.4805H72.5784C73.0365 32.3133 73.4537 32.0535 73.803 31.7179C74.1385 31.3817 74.4008 30.9818 74.5742 30.5427C74.7719 30.0163 74.8899 29.4645 74.9255 28.9047V28.8323C74.9281 28.8083 74.9281 28.7841 74.9255 28.76V28.6675C74.9617 28.2665 74.9788 27.8974 74.998 27.4634V26.8466L75.1377 27.0944L75.2965 27.388C75.5173 27.7889 75.7045 28.1261 75.9003 28.4473L75.9497 28.5271L75.9945 28.5994V28.6239L76.0163 28.6558C76.3287 29.1323 76.7103 29.5599 77.1492 29.9278C77.5012 30.2523 77.9171 30.5001 78.3738 30.6543H78.3989C78.7521 30.7713 79.1232 30.8308 79.4963 30.8308C79.6123 30.8308 79.7276 30.8234 79.8423 30.8106H79.8805C80.0558 30.7915 80.2298 30.7628 80.4025 30.7224H80.475C80.6431 30.6798 80.8085 30.6256 80.9693 30.5629C81.1618 30.4916 81.3483 30.4065 81.5289 30.3097C82.2592 29.9085 82.9314 29.4131 83.5286 28.8366C84.2331 28.1697 84.8375 27.4076 85.3239 26.5733C85.5118 26.2408 85.6541 25.8857 85.7491 25.517V25.449C85.7893 25.2825 85.8189 25.1138 85.8387 24.9438V24.8906C85.8848 24.4138 85.8288 23.9327 85.6752 23.4781C85.5144 23.0289 85.258 22.6185 84.9239 22.2741C84.5284 21.8704 84.0763 21.5244 83.5813 21.2466H83.5523L83.52 21.2275L83.4548 21.1914L83.373 21.1382C83.0474 20.9499 82.6836 20.7372 82.3 20.5532L81.9817 20.3841C81.4748 20.1057 80.9614 19.838 80.4427 19.581L82.6797 19.0716H82.766C83.4014 18.9536 84.0137 18.7383 84.5811 18.4334C85.1948 18.119 85.7055 17.6405 86.0549 17.0529C86.2842 16.6434 86.424 16.1913 86.4628 15.7244C86.6421 14.2758 86.0226 12.9952 85.6515 12.2294H85.6495Z" fill="white" fill-opacity="0.96"/>
<path d="M68.7902 20.0936L70.1368 19.7872C70.1651 19.7808 70.2126 19.7702 70.2686 19.7521C70.6403 19.654 70.9593 19.4179 71.1577 19.0932C71.3561 18.7686 71.418 18.381 71.3317 18.012L71.3264 17.9887C71.2816 17.8119 71.2038 17.6448 71.0971 17.4962C70.9461 17.3079 70.7596 17.1504 70.5474 17.0324C70.2982 16.8926 70.0366 16.7737 69.767 16.6772L68.2906 16.1465C67.4622 15.8434 66.6337 15.5487 65.7963 15.2604C65.2545 15.0712 64.7948 14.9042 64.3957 14.7819C64.3198 14.7612 64.2443 14.7385 64.1697 14.7138C63.6873 14.5691 63.3477 14.5085 63.0611 14.5064C62.8695 14.4994 62.6787 14.5335 62.5019 14.6063C62.3172 14.685 62.1513 14.801 62.0152 14.9467C61.9476 15.0221 61.8841 15.101 61.8248 15.1829C61.7096 15.3569 61.6146 15.5432 61.5415 15.738C61.2672 16.5347 61.1305 17.3709 61.1369 18.212C61.1423 18.9714 61.1629 19.9467 61.588 20.6083C61.6907 20.7785 61.8281 20.9253 61.9914 21.0391C62.2942 21.2443 62.5992 21.272 62.9183 21.2943C63.3942 21.3273 63.8538 21.2135 64.3135 21.1082L68.7869 20.0924L68.7902 20.0936ZM83.8129 13.0641C83.4458 12.3054 82.9515 11.6126 82.351 11.0145C82.2733 10.9385 82.1902 10.8681 82.1019 10.804C82.0208 10.744 81.9365 10.6883 81.8488 10.6369C81.7592 10.5885 81.6669 10.5449 81.572 10.5061C81.3855 10.4339 81.1851 10.4013 80.9847 10.4104C80.7936 10.4211 80.6064 10.4742 80.4364 10.5625C80.18 10.688 79.9018 10.8901 79.5321 11.2273C79.4813 11.2772 79.4174 11.3336 79.3594 11.3868C79.0549 11.6687 78.7155 12.0165 78.3121 12.4206C77.688 13.0407 77.075 13.664 76.464 14.2926L75.3713 15.4072C75.1722 15.6106 74.9903 15.8301 74.8282 16.0635C74.6898 16.2611 74.5916 16.4832 74.5395 16.7176C74.5105 16.8977 74.5151 17.0815 74.5527 17.2601L74.5579 17.2834C74.6443 17.6521 74.873 17.9733 75.1953 18.1796C75.5176 18.386 75.9091 18.4612 76.2867 18.3896C76.3322 18.3833 76.377 18.3748 76.4218 18.3641L82.2423 17.041C82.7023 16.9367 83.1676 16.841 83.5796 16.6049C83.8564 16.4485 84.1194 16.2922 84.3 15.9774C84.3962 15.8039 84.4542 15.6126 84.4707 15.4158C84.5603 14.6351 84.1464 13.7491 83.8129 13.0641ZM73.392 15.471C73.8138 14.9499 73.8138 14.1735 73.8507 13.5375C73.9786 11.4155 74.1111 9.29361 74.2185 7.17069C74.2587 6.36657 74.3464 5.57312 74.2976 4.76265C74.2574 4.0947 74.2528 3.32677 73.8237 2.77795C73.0664 1.81007 71.451 1.88984 70.3483 2.04087C70.0089 2.08705 69.6714 2.14953 69.3373 2.22806C69.0018 2.30677 68.669 2.39292 68.3447 2.49609C67.2868 2.83645 65.7996 3.46185 65.5486 4.66054C65.4059 5.33806 65.7433 6.03047 66.0029 6.64952C66.32 7.39826 66.7517 8.07369 67.1451 8.77884C68.1865 10.6412 69.2463 12.4929 70.3035 14.3458C70.6199 14.8988 70.9633 15.5987 71.5742 15.8859C71.6151 15.9029 71.656 15.9178 71.6981 15.9316C71.9723 16.0337 72.2716 16.0528 72.5563 15.988L72.607 15.9774C72.8707 15.9061 73.1086 15.7646 73.2958 15.57C73.3307 15.5381 73.3617 15.5062 73.3933 15.471H73.392ZM72.8871 21.1518C72.7224 20.9241 72.489 20.7534 72.2195 20.6642C71.9506 20.575 71.6593 20.5718 71.3877 20.6551C71.3244 20.6757 71.2618 20.701 71.2018 20.7306C71.1089 20.7772 71.0206 20.8317 70.9369 20.8933C70.699 21.0778 70.4861 21.292 70.3042 21.5305C70.258 21.589 70.2145 21.6666 70.1585 21.7177L69.2219 22.9834C68.6914 23.6939 68.1674 24.4054 67.6493 25.1276C67.3093 25.5945 67.0173 25.9891 66.7846 26.3369C66.7418 26.4029 66.6963 26.4752 66.6548 26.5347C66.3773 26.9559 66.2204 27.2644 66.1394 27.5388C66.0787 27.7211 66.0596 27.9143 66.0827 28.1047C66.1091 28.3024 66.1769 28.4928 66.2817 28.6641C66.3384 28.7492 66.3991 28.8321 66.4636 28.9119C66.604 29.0706 66.7616 29.2133 66.9342 29.3374C67.5808 29.7798 68.288 30.0978 69.0321 30.3435C69.6523 30.5456 70.2956 30.6669 70.9468 30.703C71.0582 30.7083 71.1696 30.7062 71.2796 30.6966C71.3824 30.6873 71.4839 30.6731 71.5848 30.6541C71.6856 30.631 71.7858 30.6026 71.8833 30.569C72.0738 30.4989 72.2472 30.3902 72.3915 30.25C72.5293 30.1148 72.6354 29.9521 72.7013 29.7724C72.8094 29.5064 72.8806 29.1704 72.928 28.6705C72.9313 28.5992 72.9425 28.5141 72.9498 28.4365C72.9867 28.0216 73.0038 27.5324 73.0302 26.9602C73.0763 26.0785 73.1119 25.201 73.1402 24.3214L73.2009 22.7557C73.2147 22.3962 73.2028 21.9963 73.1013 21.6379C73.0565 21.4657 72.984 21.3016 72.8871 21.1518ZM83.457 23.6013C83.2626 23.3896 82.9857 23.1801 82.5488 22.9206C82.4861 22.8855 82.411 22.8397 82.3431 22.7993C81.98 22.5834 81.5417 22.3579 81.0302 22.0846C80.2439 21.6592 79.4576 21.2465 78.6628 20.8359L77.2596 20.1042C77.1871 20.0829 77.1139 20.0318 77.0447 19.9989C76.7751 19.8633 76.4884 19.7629 76.1925 19.7C76.0903 19.6806 75.9868 19.6699 75.8827 19.6681C75.8155 19.6677 75.7483 19.6716 75.6817 19.6798C75.4009 19.7224 75.1412 19.8512 74.9389 20.0477C74.7372 20.2442 74.6034 20.4986 74.5573 20.7742C74.5362 20.9497 74.5428 21.1274 74.5777 21.2997C74.6456 21.6677 74.8123 22.0304 74.985 22.3483L75.7338 23.73C76.151 24.5086 76.5728 25.2829 77.0058 26.055C77.2846 26.5581 77.5173 26.9889 77.7348 27.3463C77.7756 27.4133 77.8224 27.4856 77.858 27.5484C78.123 27.977 78.3352 28.2472 78.5501 28.4418C78.6937 28.5774 78.8658 28.6802 79.0543 28.7426C79.2428 28.8052 79.4425 28.8259 79.6402 28.8034C79.743 28.7911 79.8452 28.7734 79.9467 28.7502C80.1536 28.6958 80.3533 28.6184 80.5425 28.5194C81.1119 28.2056 81.6366 27.8194 82.1032 27.3707C82.6634 26.8283 83.1584 26.2369 83.544 25.5605C83.598 25.4647 83.6435 25.3658 83.6824 25.2627C83.7186 25.1682 83.7496 25.072 83.776 24.9744C83.7991 24.8744 83.8162 24.7744 83.828 24.6734C83.8478 24.4748 83.8241 24.2745 83.7602 24.0853C83.6962 23.9037 83.5934 23.738 83.457 23.6002V23.6013Z" fill="#FF1A1A"/>
<path fill-rule="evenodd" clip-rule="evenodd" d="M35.1487 10.1673C35.1487 9.02922 36.0907 8.09961 37.2286 8.09961C38.3502 8.09961 39.2608 9.02922 39.3095 10.1843V26.3235C39.3095 27.4615 38.3664 28.3912 37.2286 28.3912C36.9536 28.391 36.6813 28.3373 36.4275 28.2331C36.1738 28.1289 35.9435 27.9762 35.7501 27.7839C35.5567 27.5916 35.404 27.3635 35.3008 27.1129C35.1975 26.8623 35.1459 26.5939 35.1487 26.3235V10.1673ZM33.2138 20.1365C33.1976 20.4567 33.1165 21.0501 32.6946 21.483C32.2393 21.9478 31.6217 22.0595 31.2638 22.0595C29.7766 22.068 28.2894 22.0723 26.8023 22.0754C25.3151 22.0797 23.828 22.084 22.3409 22.0914C22.4706 22.4924 22.7302 23.1018 23.3153 23.6623C23.6722 23.9995 24.014 24.191 24.1611 24.2718C24.3395 24.3835 24.9571 24.7047 25.7207 24.7047C26.534 24.7047 27.249 24.4473 27.9487 24.0952L28.0061 24.0654C28.4927 23.8176 28.9935 23.5623 29.5246 23.4698C30.0437 23.3901 30.5975 23.4858 31.0031 23.8389C31.4909 24.2559 31.6866 24.8642 31.5071 25.4897C31.2962 26.1948 30.6948 26.8043 30.061 27.1722C29.6983 27.381 29.3176 27.5579 28.9233 27.7009C27.9173 28.0519 26.8536 28.2153 25.7867 28.1827C25.5271 28.1827 25.2502 28.1827 24.9734 28.1508C24.6813 28.1189 24.3893 28.054 24.1124 27.9902C23.6636 27.8944 23.2271 27.7492 22.8113 27.5573C22.3954 27.376 21.9981 27.1559 21.6248 26.9C21.2526 26.6369 20.9048 26.3418 20.5854 26.0182C20.2679 25.6907 19.9795 25.337 19.7235 24.961C18.8463 23.6464 18.4396 22.0276 18.5208 20.4567C18.5856 18.9186 19.1059 17.3796 20.049 16.1299C20.1507 15.9724 20.2685 15.8395 20.3799 15.714C20.4286 15.6587 20.4762 15.6055 20.5206 15.5523C21.6843 14.1526 23.2396 13.7102 23.8809 13.5272L23.9167 13.5166C25.2184 13.1531 26.5973 13.1531 27.899 13.5166C28.2083 13.5974 29.9475 14.126 31.2962 15.5523C31.3611 15.6162 31.5406 15.8246 31.7678 16.1299C32.3447 16.9024 32.7685 17.7749 33.0169 18.7016L33.0191 18.7102C33.1165 19.0622 33.2138 19.543 33.2138 20.1354V20.1365ZM23.6733 17.4924C23.0316 18.0056 22.5849 18.717 22.4057 19.5111H29.4921C29.3009 18.7176 28.8498 18.008 28.2083 17.4913C27.5621 16.9817 26.761 16.6997 25.9327 16.6904C25.1088 16.6984 24.312 16.9808 23.6722 17.4913L23.6733 17.4924ZM50.6216 13.2443C48.7689 13.2443 47.0784 14.0622 45.8757 15.3928V15.3439C45.8515 14.8095 45.6149 14.3059 45.2167 13.9415C44.8185 13.5772 44.2907 13.3813 43.747 13.3961C43.2033 13.4109 42.6873 13.6352 42.3102 14.0206C41.9331 14.406 41.7252 14.9218 41.7311 15.4566V30.8587C41.7299 31.1281 41.7827 31.395 41.8868 31.6442C41.9909 31.8933 42.144 32.1197 42.3374 32.3104C42.5308 32.5011 42.7607 32.6523 43.0138 32.7553C43.2668 32.8583 43.5381 32.911 43.8121 32.9105C44.0858 32.9108 44.3571 32.858 44.61 32.755C44.8629 32.652 45.0927 32.5008 45.286 32.31C45.4793 32.1194 45.6323 31.893 45.7363 31.6439C45.8403 31.3948 45.8932 31.128 45.8919 30.8587V26.0501C47.0946 27.3648 48.7689 28.1987 50.6378 28.1987C54.3605 28.1987 57.3835 24.8802 57.3835 20.7448C57.3673 16.6106 54.3443 13.2443 50.6216 13.2443ZM49.712 24.8483C47.5986 24.8483 45.8757 23.0369 45.8757 20.7779C45.8757 18.5017 47.5824 16.6904 49.712 16.6904C51.8243 16.6904 53.5472 18.5017 53.5472 20.7779C53.531 23.0369 51.8243 24.8483 49.712 24.8483ZM15.4004 21.8191L14.7179 23.2944C14.4086 23.9346 14.0993 24.5919 13.8073 25.2493L13.525 25.8661C12.2249 28.7081 10.6837 32.0819 7.32221 32.7977C5.69663 33.1508 3.24256 32.6701 2.33188 31.1629C1.42229 29.6409 2.771 27.8934 4.51015 28.2943C4.78487 28.3539 5.05418 28.4858 5.32673 28.6198C5.77991 28.8432 6.23957 29.0676 6.73707 28.9677C7.20865 28.8879 7.50069 28.5507 7.87492 28.1178C8.39402 27.5254 8.62227 26.9 8.71961 26.5309L8.69582 26.4756C8.68824 26.4565 8.68 26.4377 8.67091 26.4192C8.24804 25.6428 7.87815 24.9493 7.5699 24.3697C7.39662 24.0423 7.22177 23.7158 7.04533 23.3901L6.33692 22.0669C5.81776 21.0991 5.73124 20.9395 5.50195 20.5215C4.99646 19.5832 4.46522 18.6586 3.90881 17.7486C3.30745 16.7542 2.68988 15.6491 3.19389 14.4781C3.38333 14.0247 3.73906 13.6578 4.19057 13.4502C4.6421 13.2426 5.15646 13.2093 5.63173 13.357C6.67762 13.6686 7.14162 14.6482 7.57425 15.5629C7.65321 15.7289 7.72999 15.8927 7.81 16.049C8.50871 17.4115 9.19119 18.774 9.87362 20.1365C9.93419 20.2716 10.0251 20.4555 10.1375 20.6811C10.237 20.881 10.3528 21.1139 10.475 21.3703L10.6556 21.7404C10.7259 21.8851 10.7876 22.0084 10.833 22.1073C11.1499 21.3309 11.4711 20.5577 11.7912 19.7833C12.1125 19.0101 12.4337 18.2369 12.7506 17.4594C12.7593 17.4168 12.835 17.2509 12.9496 17.001C13.0459 16.7893 13.1691 16.5181 13.3033 16.2096L13.4406 15.8831C13.8624 14.8727 14.3708 13.6569 15.4978 13.3251C15.8978 13.2109 16.324 13.2222 16.7173 13.3571C17.1106 13.4921 17.4513 13.7441 17.6923 14.0781C17.9356 14.4143 18.033 14.7993 18.0492 15.1843C18.0622 16.0352 17.6447 16.9478 17.2856 17.7306C17.1991 17.9221 17.1147 18.105 17.0422 18.2773L16.999 18.3709C16.8995 18.591 16.6291 19.1867 16.164 20.1684C15.9964 20.5194 15.8352 20.8725 15.6719 21.2288L15.4004 21.8191Z" fill="black"/>
</g>
<defs>
<clipPath id="clip0_7093_4516">
<rect width="87" height="35" fill="white"/>
</clipPath>
</defs>
</svg>
