<svg width="89" height="21" viewBox="0 0 89 21" fill="none" xmlns="http://www.w3.org/2000/svg">
<g clip-path="url(#clip0_7093_4452)">
<path fill-rule="evenodd" clip-rule="evenodd" d="M72.4625 6.29736C72.8027 6.91364 72.914 7.61482 72.9508 8.40309L72.9991 9.45375V16.8007L73.0484 17.8524C73.1471 19.5701 74.3536 20.8401 76.0021 20.9482L76.9985 21V9.45375L77.0479 8.40309C77.0888 7.62364 77.1991 6.90923 77.5445 6.28854C77.8965 5.65189 78.4019 5.12369 79.0098 4.75696C79.6177 4.39022 80.3068 4.19787 81.0079 4.19921C81.709 4.20055 82.3974 4.39554 83.0041 4.76459C83.6107 5.13365 84.1142 5.66378 84.464 6.30177C84.8042 6.91805 84.9103 7.63246 84.9512 8.40309L85.0006 9.45044V16.8007L85.0499 17.8524C85.1528 19.5789 86.3498 20.849 88.0036 20.9482L89 21V8.40309C89 6.17561 88.1575 4.03931 86.6577 2.46394C85.1579 0.888562 83.1236 0.00308491 81.0022 0.00220791C79.8667 0.000950608 78.7441 0.254129 77.7093 0.74483C76.6744 1.23553 75.7513 1.95245 75.0014 2.8477C74.2512 1.95281 73.328 1.23606 72.2933 0.74521C71.2586 0.254364 70.1361 0.000695103 69.0007 0.00110522C67.3396 0.00110522 65.7982 0.530295 64.5214 1.44425C63.7423 0.531397 61.9993 0.00110522 60.9986 0.00110522V21L61.9993 20.9482C63.673 20.8324 64.8826 19.5965 64.9477 17.8524L65.0012 16.8007V9.45375L65.0506 8.40309C65.0926 7.61041 65.1976 6.91364 65.5388 6.29295C65.8911 5.6567 66.3962 5.12862 67.0037 4.76144C67.6112 4.39426 68.2997 4.20082 69.0007 4.20044C69.7021 4.2006 70.3912 4.39442 70.9989 4.76247C71.6065 5.13051 72.1112 5.65984 72.4625 6.29736V6.29736ZM3.99945 20.9493L5.00009 21H19.9993L19.95 19.9526C19.8145 18.2262 18.6501 16.9649 17.0005 16.8525L15.9999 16.8007H7.00139L18.9987 4.19934L18.9493 3.15309C18.8716 1.40897 17.6578 0.148838 15.9999 0.0529213L14.9992 0.00551504L0 0.00110522L0.0493499 1.05177C0.1806 2.76171 1.36185 4.0494 2.99775 4.14863L3.99945 4.20044H12.9979L1.00065 16.8018L1.05 17.8524C1.1487 19.5833 2.33835 20.8368 3.99945 20.9482V20.9493ZM57.0727 3.07481C58.0014 4.04976 58.7381 5.20725 59.2408 6.48118C59.7434 7.75511 60.0021 9.12053 60.0021 10.4995C60.0021 11.8784 59.7434 13.2438 59.2408 14.5177C58.7381 15.7917 58.0014 16.9491 57.0727 17.9241C55.1963 19.8926 52.6524 20.9984 49.9999 20.9984C47.3474 20.9984 44.8035 19.8926 42.9271 17.9241C39.0222 13.824 39.0222 7.17493 42.9271 3.07481C43.855 2.1002 44.9566 1.32703 46.1691 0.799448C47.3816 0.27187 48.6811 0.000217641 49.9936 2.53107e-06C51.3082 -0.000955774 52.6101 0.270218 53.8248 0.798012C55.0395 1.32581 56.1432 2.09987 57.0727 3.07592V3.07481ZM54.2429 6.0482C55.3677 7.23007 55.9995 8.83251 55.9995 10.5033C55.9995 12.1741 55.3677 13.7765 54.2429 14.9584C53.1173 16.1394 51.5912 16.8028 49.9999 16.8028C48.4086 16.8028 46.8825 16.1394 45.7568 14.9584C44.6321 13.7765 44.0003 12.1741 44.0003 10.5033C44.0003 8.83251 44.6321 7.23007 45.7568 6.0482C46.8825 4.86721 48.4086 4.20381 49.9999 4.20381C51.5912 4.20381 53.1173 4.86721 54.2429 6.0482V6.0482ZM29.0062 2.53107e-06C30.3188 0.000362429 31.6184 0.272188 32.8308 0.799957C34.0433 1.32773 35.1449 2.1011 36.0727 3.07592C39.9787 7.17493 39.9787 13.8251 36.0727 17.9241C34.1964 19.8926 31.6524 20.9984 28.9999 20.9984C26.3474 20.9984 23.8035 19.8926 21.9271 17.9241C18.0222 13.824 18.0222 7.17493 21.9271 3.07481C22.855 2.1002 23.9566 1.32703 25.1691 0.799448C26.3816 0.27187 27.6812 0.000217641 28.9936 2.53107e-06H29.0062ZM33.243 6.04599C34.3681 7.22792 35.0001 8.83059 35.0001 10.5017C35.0001 12.1727 34.3681 13.7754 33.243 14.9573C32.1173 16.1383 30.5912 16.8017 28.9999 16.8017C27.4087 16.8017 25.8825 16.1383 24.7569 14.9573C23.6321 13.7754 23.0003 12.173 23.0003 10.5022C23.0003 8.83141 23.6321 7.22897 24.7569 6.04709C25.8825 4.86611 27.4087 4.20271 28.9999 4.20271C30.5912 4.20271 32.1173 4.86611 33.243 6.04709V6.04599Z" fill="#2D8CFF"/>
</g>
<defs>
<clipPath id="clip0_7093_4452">
<rect width="89" height="21" fill="white"/>
</clipPath>
</defs>
</svg>
