<svg width="24" height="24" viewBox="0 0 24 24" fill="none" xmlns="http://www.w3.org/2000/svg">
<path d="M2 12C2 12.1633 2.06725 12.32 2.18695 12.4355C2.30665 12.551 2.46901 12.6159 2.6383 12.6159H19.8191L13.2553 18.9592C13.1966 19.0158 13.1501 19.083 13.1183 19.157C13.0866 19.231 13.0702 19.3103 13.0702 19.3903C13.0702 19.4704 13.0866 19.5497 13.1183 19.6236C13.1501 19.6976 13.1966 19.7648 13.2553 19.8214C13.314 19.878 13.3837 19.923 13.4603 19.9536C13.537 19.9842 13.6191 20 13.7021 20C13.7851 20 13.8673 19.9842 13.9439 19.9536C14.0206 19.923 14.0903 19.878 14.1489 19.8214L21.8085 12.4311C21.869 12.3755 21.9172 12.3086 21.9501 12.2345C21.983 12.1604 22 12.0806 22 12C22 11.9194 21.983 11.8396 21.9501 11.7655C21.9172 11.6914 21.869 11.6245 21.8085 11.5689L14.1489 4.17857C14.0304 4.06423 13.8697 4 13.7021 4C13.5345 4 13.3738 4.06423 13.2553 4.17857C13.1368 4.2929 13.0702 4.44798 13.0702 4.60967C13.0702 4.77137 13.1368 4.92644 13.2553 5.04077L19.8191 11.3841H2.6383C2.46901 11.3841 2.30665 11.449 2.18695 11.5645C2.06725 11.68 2 11.8367 2 12Z" fill="white"/>
</svg>
