<svg width="24" height="25" viewBox="0 0 24 25" fill="none" xmlns="http://www.w3.org/2000/svg">
<path d="M6.54583 13.0625H11.1413V17.6579C11.1413 18.125 11.5255 18.5167 12.0001 18.5167C12.4747 18.5167 12.8589 18.125 12.8589 17.6579V13.0625H17.4543C17.9214 13.0625 18.3131 12.6783 18.3131 12.2037C18.3131 11.7291 17.9214 11.3449 17.4543 11.3449H12.8589V6.74944C12.8589 6.28237 12.4747 5.89062 12.0001 5.89062C11.5255 5.89062 11.1413 6.28237 11.1413 6.74944V11.3449H6.54583C6.07875 11.3449 5.68701 11.7291 5.68701 12.2037C5.68701 12.6783 6.07875 13.0625 6.54583 13.0625Z" fill="#151614"/>
<path d="M6.54583 13.0625H11.1413V17.6579C11.1413 18.125 11.5255 18.5167 12.0001 18.5167C12.4747 18.5167 12.8589 18.125 12.8589 17.6579V13.0625H17.4543C17.9214 13.0625 18.3131 12.6783 18.3131 12.2037C18.3131 11.7291 17.9214 11.3449 17.4543 11.3449H12.8589V6.74944C12.8589 6.28237 12.4747 5.89062 12.0001 5.89062C11.5255 5.89062 11.1413 6.28237 11.1413 6.74944V11.3449H6.54583C6.07875 11.3449 5.68701 11.7291 5.68701 12.2037C5.68701 12.6783 6.07875 13.0625 6.54583 13.0625Z" fill="black" fill-opacity="0.2"/>
<path d="M6.54583 13.0625H11.1413V17.6579C11.1413 18.125 11.5255 18.5167 12.0001 18.5167C12.4747 18.5167 12.8589 18.125 12.8589 17.6579V13.0625H17.4543C17.9214 13.0625 18.3131 12.6783 18.3131 12.2037C18.3131 11.7291 17.9214 11.3449 17.4543 11.3449H12.8589V6.74944C12.8589 6.28237 12.4747 5.89062 12.0001 5.89062C11.5255 5.89062 11.1413 6.28237 11.1413 6.74944V11.3449H6.54583C6.07875 11.3449 5.68701 11.7291 5.68701 12.2037C5.68701 12.6783 6.07875 13.0625 6.54583 13.0625Z" fill="black" fill-opacity="0.2"/>
<path d="M6.54583 13.0625H11.1413V17.6579C11.1413 18.125 11.5255 18.5167 12.0001 18.5167C12.4747 18.5167 12.8589 18.125 12.8589 17.6579V13.0625H17.4543C17.9214 13.0625 18.3131 12.6783 18.3131 12.2037C18.3131 11.7291 17.9214 11.3449 17.4543 11.3449H12.8589V6.74944C12.8589 6.28237 12.4747 5.89062 12.0001 5.89062C11.5255 5.89062 11.1413 6.28237 11.1413 6.74944V11.3449H6.54583C6.07875 11.3449 5.68701 11.7291 5.68701 12.2037C5.68701 12.6783 6.07875 13.0625 6.54583 13.0625Z" fill="black" fill-opacity="0.2"/>
</svg>
