<svg width="18" height="18" viewBox="0 0 18 18" fill="none" xmlns="http://www.w3.org/2000/svg">
<path d="M8.19609 2.78177C8.43842 2.00243 9.49351 2.00243 9.73583 2.78177L10.7834 6.15082C10.8917 6.49936 11.2025 6.73533 11.5532 6.73533H14.9431C15.7273 6.73533 16.0534 7.78393 15.419 8.26559L12.6765 10.3478C12.3927 10.5632 12.274 10.945 12.3824 11.2935L13.4299 14.6626C13.6723 15.4419 12.8187 16.09 12.1843 15.6083L9.44176 13.5261C9.15805 13.3107 8.77387 13.3107 8.49016 13.5261L5.74766 15.6083C5.11325 16.09 4.25967 15.4419 4.50199 14.6626L5.54953 11.2935C5.6579 10.945 5.53918 10.5632 5.25547 10.3478L2.51297 8.26558C1.87856 7.78392 2.20461 6.73533 2.98877 6.73533H6.37869C6.72938 6.73533 7.04018 6.49936 7.14855 6.15082L8.19609 2.78177Z" fill="#A8FA00"/>
</svg>
