<svg width="70" height="70" viewBox="0 0 70 70" fill="none" xmlns="http://www.w3.org/2000/svg">
<g clip-path="url(#clip0_7046_1720)">
<g clip-path="url(#clip1_7046_1720)">
<path d="M40.8332 5.83325H17.4998C15.9527 5.83325 14.469 6.44783 13.375 7.5418C12.2811 8.63576 11.6665 10.1195 11.6665 11.6666V58.3333C11.6665 59.8804 12.2811 61.3641 13.375 62.458C14.469 63.552 15.9527 64.1666 17.4998 64.1666H52.4998C54.0469 64.1666 55.5307 63.552 56.6246 62.458C57.7186 61.3641 58.3332 59.8804 58.3332 58.3333V23.3333L40.8332 5.83325Z" stroke="#151614" stroke-width="3.75" stroke-linecap="round" stroke-linejoin="round"/>
<path d="M40.8335 5.83325V23.3333H58.3335" stroke="#151614" stroke-width="3.75" stroke-linecap="round" stroke-linejoin="round"/>
<path d="M46.6668 37.9167H23.3335" stroke="#151614" stroke-width="3.75" stroke-linecap="round" stroke-linejoin="round"/>
<path d="M46.6668 49.5833H23.3335" stroke="#151614" stroke-width="3.75" stroke-linecap="round" stroke-linejoin="round"/>
<path d="M29.1668 26.25H26.2502H23.3335" stroke="#151614" stroke-width="3.75" stroke-linecap="round" stroke-linejoin="round"/>
</g>
</g>
<defs>
<clipPath id="clip0_7046_1720">
<rect width="70" height="70" fill="white"/>
</clipPath>
<clipPath id="clip1_7046_1720">
<rect width="70" height="70" fill="white"/>
</clipPath>
</defs>
</svg>
