<svg width="120" height="120" viewBox="0 0 120 120" fill="none" xmlns="http://www.w3.org/2000/svg">
  <!-- 机器人身体 -->
  <rect x="30" y="60" width="60" height="40" rx="8" fill="#F3F4F6" stroke="#EC4899" stroke-width="2"/>
  
  <!-- 机器人头部 -->
  <rect x="35" y="30" width="50" height="35" rx="6" fill="#F3F4F6" stroke="#EC4899" stroke-width="2"/>
  
  <!-- 眼睛 -->
  <circle cx="45" cy="45" r="4" fill="#EC4899"/>
  <circle cx="75" cy="45" r="4" fill="#EC4899"/>
  
  <!-- 眼睛高光 -->
  <circle cx="46" cy="44" r="1" fill="white"/>
  <circle cx="76" cy="44" r="1" fill="white"/>
  
  <!-- 嘴巴 -->
  <rect x="55" y="52" width="10" height="3" rx="1" fill="#EC4899"/>
  
  <!-- 耳机 -->
  <path d="M 30 35 Q 25 30 20 35 Q 25 40 30 35" stroke="#EC4899" stroke-width="3" fill="none"/>
  <path d="M 90 35 Q 95 30 100 35 Q 95 40 90 35" stroke="#EC4899" stroke-width="3" fill="none"/>
  <path d="M 35 35 L 85 35" stroke="#EC4899" stroke-width="3"/>
  
  <!-- 麦克风 -->
  <circle cx="60" cy="55" r="3" fill="#EC4899"/>
  <path d="M 60 58 L 60 65" stroke="#EC4899" stroke-width="2"/>
  
  <!-- 天线 -->
  <line x1="60" y1="30" x2="60" y2="20" stroke="#EC4899" stroke-width="2"/>
  <circle cx="60" cy="18" r="2" fill="#EC4899"/>
  
  <!-- 手臂 -->
  <rect x="20" y="65" width="12" height="20" rx="6" fill="#F3F4F6" stroke="#EC4899" stroke-width="2"/>
  <rect x="88" y="65" width="12" height="20" rx="6" fill="#F3F4F6" stroke="#EC4899" stroke-width="2"/>
  
  <!-- 手部 -->
  <circle cx="26" cy="85" r="4" fill="#EC4899"/>
  <circle cx="94" cy="85" r="4" fill="#EC4899"/>
  
  <!-- 腿部 -->
  <rect x="40" y="100" width="15" height="15" rx="3" fill="#F3F4F6" stroke="#EC4899" stroke-width="2"/>
  <rect x="65" y="100" width="15" height="15" rx="3" fill="#F3F4F6" stroke="#EC4899" stroke-width="2"/>
  
  <!-- 屏幕显示 - 客服界面 -->
  <rect x="40" y="35" width="40" height="15" rx="2" fill="#EC4899" opacity="0.3"/>
  <circle cx="50" cy="42" r="2" fill="white"/>
  <circle cx="60" cy="42" r="2" fill="white"/>
  <circle cx="70" cy="42" r="2" fill="white"/>
  
  <!-- 阴影 -->
  <ellipse cx="60" cy="115" rx="25" ry="5" fill="#000000" opacity="0.1"/>
</svg>
