<svg width="32" height="32" viewBox="0 0 32 32" fill="none" xmlns="http://www.w3.org/2000/svg">
<path d="M24.1048 20.2454L23.6298 19.971C23.3797 19.827 23.172 19.6196 23.0276 19.37C22.8832 19.1203 22.8072 18.837 22.8073 18.5487V14.1007C22.8073 11.1978 20.9217 8.73473 18.3067 7.86525C18.1636 7.81738 18.0337 7.73657 17.9276 7.62934C17.8216 7.52211 17.7422 7.39148 17.6961 7.24798C17.5906 6.92541 17.3853 6.64459 17.1098 6.44595C16.8343 6.2473 16.5027 6.14109 16.1629 6.14259C15.823 6.1441 15.4924 6.25325 15.2187 6.45433C14.9449 6.65541 14.7422 6.93804 14.6396 7.26153C14.5933 7.40279 14.5143 7.53111 14.4089 7.63604C14.3035 7.74096 14.1747 7.8195 14.0331 7.86525C11.4173 8.73473 9.53143 11.1978 9.53143 14.1007V18.6101C9.53131 18.9073 9.45291 19.1991 9.30409 19.4564C9.15527 19.7138 8.94128 19.9274 8.6836 20.076L8.39029 20.2454C7.57377 20.7162 7.73791 21.8471 8.48867 22.172C9.21072 22.6267 12.4134 22.9693 16.2554 22.9693C20.1576 22.9693 23.4007 22.6157 24.0544 22.1504C24.7637 21.7999 24.9043 20.7063 24.1048 20.2454Z" fill="#A8FA00"/>
<path d="M21.2047 15.0118C20.9495 15.0114 20.7031 14.918 20.512 14.7489C20.3208 14.5799 20.1978 14.3469 20.1662 14.0936C19.8741 11.7221 18.5184 10.5418 17.6622 10.023C17.4632 9.90356 17.3092 9.72181 17.224 9.50593C17.1388 9.29005 17.1272 9.0521 17.1909 8.82895C17.2353 8.67464 17.3145 8.53255 17.4223 8.41358C17.5302 8.29461 17.6638 8.20192 17.8131 8.14264C17.9623 8.08335 18.1231 8.05904 18.2832 8.07156C18.4433 8.08409 18.5984 8.13312 18.7366 8.21489C19.0766 8.41682 19.3992 8.64678 19.7009 8.90239C20.6841 9.73739 21.9197 11.2649 22.2422 13.8065C22.3125 14.3618 21.95 14.8915 21.3984 14.994C21.3345 15.0058 21.2697 15.0117 21.2047 15.0118Z" fill="white"/>
<path d="M16.2556 24.0743C17.1079 24.0743 17.9286 24.0574 18.6979 24.0261C18.7522 24.0238 18.8062 24.0358 18.8545 24.0609C18.9027 24.0859 18.9435 24.1232 18.9728 24.169C19.0021 24.2148 19.0188 24.2675 19.0213 24.3217C19.0238 24.376 19.012 24.4299 18.987 24.4782C18.7275 24.9797 18.3349 25.4002 17.852 25.6938C17.3692 25.9873 16.8148 26.1426 16.2495 26.1426C15.6842 26.1426 15.1298 25.9873 14.6469 25.6938C14.1641 25.4002 13.7715 24.9797 13.512 24.4782C13.487 24.4301 13.4751 24.3763 13.4774 24.3221C13.4797 24.268 13.4963 24.2154 13.5253 24.1696C13.5543 24.1238 13.5949 24.0864 13.6429 24.0611C13.6909 24.0359 13.7448 24.0236 13.799 24.0256C14.5725 24.0571 15.3981 24.0743 16.2556 24.0743Z" fill="#A8FA00"/>
</svg>
